<svg width="116" height="28" viewBox="0 0 116 28" fill="none" xmlns="http://www.w3.org/2000/svg">
<path d="M8 4V7" stroke="#90A3BF" stroke-width="1.5" stroke-miterlimit="10" stroke-linecap="round" stroke-linejoin="round"/>
<path d="M16 4V7" stroke="#90A3BF" stroke-width="1.5" stroke-miterlimit="10" stroke-linecap="round" stroke-linejoin="round"/>
<path d="M3.5 11.0898H20.5" stroke="#90A3BF" stroke-width="1.5" stroke-miterlimit="10" stroke-linecap="round" stroke-linejoin="round"/>
<path d="M21 10.5V19C21 22 19.5 24 16 24H8C4.5 24 3 22 3 19V10.5C3 7.5 4.5 5.5 8 5.5H16C19.5 5.5 21 7.5 21 10.5Z" stroke="#90A3BF" stroke-width="1.5" stroke-miterlimit="10" stroke-linecap="round" stroke-linejoin="round"/>
<path d="M15.6947 15.7002H15.7037" stroke="#90A3BF" stroke-width="1.5" stroke-linecap="round" stroke-linejoin="round"/>
<path d="M15.6947 18.7002H15.7037" stroke="#90A3BF" stroke-width="1.5" stroke-linecap="round" stroke-linejoin="round"/>
<path d="M11.9955 15.7002H12.0045" stroke="#90A3BF" stroke-width="1.5" stroke-linecap="round" stroke-linejoin="round"/>
<path d="M11.9955 18.7002H12.0045" stroke="#90A3BF" stroke-width="1.5" stroke-linecap="round" stroke-linejoin="round"/>
<path d="M8.29431 15.7002H8.30329" stroke="#90A3BF" stroke-width="1.5" stroke-linecap="round" stroke-linejoin="round"/>
<path d="M8.29431 18.7002H8.30329" stroke="#90A3BF" stroke-width="1.5" stroke-linecap="round" stroke-linejoin="round"/>
<path d="M42.816 21.192C41.9733 21.192 41.1947 21.0427 40.48 20.744C39.776 20.4347 39.1573 20.0027 38.624 19.448C38.1013 18.8933 37.696 18.2427 37.408 17.496C37.12 16.7493 36.976 15.9333 36.976 15.048C36.976 14.152 37.12 13.3307 37.408 12.584C37.696 11.8373 38.1013 11.1867 38.624 10.632C39.1467 10.0773 39.7653 9.65067 40.48 9.352C41.1947 9.04267 41.9733 8.888 42.816 8.888C43.6373 8.888 44.3733 9.032 45.024 9.32C45.6853 9.608 46.24 9.98133 46.688 10.44C47.1467 10.8987 47.472 11.3893 47.664 11.912L46.224 12.568C45.9467 11.9067 45.5147 11.3733 44.928 10.968C44.3413 10.552 43.6373 10.344 42.816 10.344C41.984 10.344 41.2427 10.5413 40.592 10.936C39.952 11.3307 39.4507 11.88 39.088 12.584C38.7253 13.288 38.544 14.1093 38.544 15.048C38.544 15.976 38.7253 16.792 39.088 17.496C39.4507 18.2 39.952 18.7493 40.592 19.144C41.2427 19.5387 41.984 19.736 42.816 19.736C43.6373 19.736 44.3413 19.5333 44.928 19.128C45.5147 18.712 45.9467 18.1733 46.224 17.512L47.664 18.168C47.472 18.6907 47.1467 19.1813 46.688 19.64C46.24 20.0987 45.6853 20.472 45.024 20.76C44.3733 21.048 43.6373 21.192 42.816 21.192ZM51.6725 21.192C51.1072 21.192 50.6058 21.0907 50.1685 20.888C49.7418 20.6747 49.4058 20.3867 49.1605 20.024C48.9152 19.6507 48.7925 19.224 48.7925 18.744C48.7925 18.2853 48.8885 17.8747 49.0805 17.512C49.2832 17.1387 49.5925 16.824 50.0085 16.568C50.4352 16.312 50.9685 16.1307 51.6085 16.024L54.8085 15.496V16.744L51.9445 17.224C51.3898 17.32 50.9845 17.496 50.7285 17.752C50.4832 18.008 50.3605 18.3227 50.3605 18.696C50.3605 19.048 50.4992 19.3413 50.7765 19.576C51.0645 19.8107 51.4218 19.928 51.8485 19.928C52.3925 19.928 52.8618 19.816 53.2565 19.592C53.6618 19.3573 53.9765 19.0427 54.2005 18.648C54.4352 18.2533 54.5525 17.816 54.5525 17.336V15.144C54.5525 14.6747 54.3765 14.296 54.0245 14.008C53.6832 13.7093 53.2298 13.56 52.6645 13.56C52.1738 13.56 51.7365 13.688 51.3525 13.944C50.9792 14.1893 50.7018 14.52 50.5205 14.936L49.2245 14.264C49.3845 13.8693 49.6405 13.5173 49.9925 13.208C50.3445 12.888 50.7552 12.6373 51.2245 12.456C51.6938 12.2747 52.1845 12.184 52.6965 12.184C53.3578 12.184 53.9392 12.312 54.4405 12.568C54.9418 12.8133 55.3312 13.16 55.6085 13.608C55.8965 14.0453 56.0405 14.5573 56.0405 15.144V21H54.5845V19.368L54.8565 19.464C54.6752 19.8053 54.4298 20.104 54.1205 20.36C53.8112 20.616 53.4485 20.8187 53.0325 20.968C52.6165 21.1173 52.1632 21.192 51.6725 21.192ZM58.0276 21V8.888H59.5156V21H58.0276ZM65.4725 21.192C64.6405 21.192 63.8992 20.9947 63.2485 20.6C62.5978 20.2053 62.0858 19.6667 61.7125 18.984C61.3392 18.2907 61.1525 17.5173 61.1525 16.664C61.1525 15.8 61.3338 15.032 61.6965 14.36C62.0698 13.688 62.5712 13.16 63.2005 12.776C63.8405 12.3813 64.5552 12.184 65.3445 12.184C65.9845 12.184 66.5498 12.3013 67.0405 12.536C67.5418 12.76 67.9632 13.0693 68.3045 13.464C68.6565 13.848 68.9232 14.2907 69.1045 14.792C69.2965 15.2827 69.3925 15.7947 69.3925 16.328C69.3925 16.4453 69.3818 16.5787 69.3605 16.728C69.3498 16.8667 69.3338 17 69.3125 17.128H62.2405V15.848H68.4485L67.7445 16.424C67.8405 15.8693 67.7872 15.3733 67.5845 14.936C67.3818 14.4987 67.0832 14.152 66.6885 13.896C66.2938 13.64 65.8458 13.512 65.3445 13.512C64.8432 13.512 64.3845 13.64 63.9685 13.896C63.5525 14.152 63.2272 14.52 62.9925 15C62.7685 15.4693 62.6778 16.0293 62.7205 16.68C62.6778 17.3093 62.7738 17.864 63.0085 18.344C63.2538 18.8133 63.5952 19.1813 64.0325 19.448C64.4805 19.704 64.9658 19.832 65.4885 19.832C66.0645 19.832 66.5498 19.6987 66.9445 19.432C67.3392 19.1653 67.6592 18.824 67.9045 18.408L69.1525 19.048C68.9818 19.4427 68.7152 19.8053 68.3525 20.136C68.0005 20.456 67.5792 20.712 67.0885 20.904C66.6085 21.096 66.0698 21.192 65.4725 21.192ZM71.0126 21V12.376H72.4686V14.056L72.2286 13.912C72.442 13.368 72.7833 12.9467 73.2526 12.648C73.7326 12.3387 74.2926 12.184 74.9326 12.184C75.5513 12.184 76.1006 12.3227 76.5806 12.6C77.0713 12.8773 77.4553 13.2613 77.7326 13.752C78.0206 14.2427 78.1646 14.7973 78.1646 15.416V21H76.6606V15.896C76.6606 15.416 76.5753 15.0107 76.4046 14.68C76.234 14.3493 75.9886 14.0933 75.6686 13.912C75.3593 13.72 75.002 13.624 74.5966 13.624C74.1913 13.624 73.8286 13.72 73.5086 13.912C73.1993 14.0933 72.954 14.3547 72.7726 14.696C72.5913 15.0267 72.5006 15.4267 72.5006 15.896V21H71.0126ZM83.8939 21.192C83.0832 21.192 82.3525 20.9947 81.7019 20.6C81.0619 20.2053 80.5552 19.6667 80.1819 18.984C79.8085 18.3013 79.6219 17.5387 79.6219 16.696C79.6219 15.832 79.8085 15.064 80.1819 14.392C80.5552 13.7093 81.0619 13.1707 81.7019 12.776C82.3525 12.3813 83.0832 12.184 83.8939 12.184C84.6085 12.184 85.2432 12.3387 85.7979 12.648C86.3525 12.9467 86.7899 13.352 87.1099 13.864L86.8699 14.232V8.888H88.3739V21H86.9179V19.16L87.1099 19.416C86.8112 19.9813 86.3739 20.4187 85.7979 20.728C85.2325 21.0373 84.5979 21.192 83.8939 21.192ZM84.0219 19.752C84.5659 19.752 85.0512 19.6187 85.4779 19.352C85.9045 19.0853 86.2405 18.7227 86.4859 18.264C86.7419 17.7947 86.8699 17.272 86.8699 16.696C86.8699 16.1093 86.7419 15.5867 86.4859 15.128C86.2405 14.6587 85.9045 14.2907 85.4779 14.024C85.0512 13.7573 84.5659 13.624 84.0219 13.624C83.4885 13.624 83.0032 13.7627 82.5659 14.04C82.1392 14.3067 81.8032 14.6693 81.5579 15.128C81.3125 15.576 81.1899 16.0987 81.1899 16.696C81.1899 17.272 81.3125 17.7947 81.5579 18.264C81.8032 18.7227 82.1392 19.0853 82.5659 19.352C82.9925 19.6187 83.4779 19.752 84.0219 19.752ZM94.325 21.192C93.493 21.192 92.7517 20.9947 92.101 20.6C91.4503 20.2053 90.9383 19.6667 90.565 18.984C90.1917 18.2907 90.005 17.5173 90.005 16.664C90.005 15.8 90.1863 15.032 90.549 14.36C90.9223 13.688 91.4237 13.16 92.053 12.776C92.693 12.3813 93.4077 12.184 94.197 12.184C94.837 12.184 95.4023 12.3013 95.893 12.536C96.3943 12.76 96.8157 13.0693 97.157 13.464C97.509 13.848 97.7757 14.2907 97.957 14.792C98.149 15.2827 98.245 15.7947 98.245 16.328C98.245 16.4453 98.2343 16.5787 98.213 16.728C98.2023 16.8667 98.1863 17 98.165 17.128H91.093V15.848H97.301L96.597 16.424C96.693 15.8693 96.6397 15.3733 96.437 14.936C96.2343 14.4987 95.9357 14.152 95.541 13.896C95.1463 13.64 94.6983 13.512 94.197 13.512C93.6957 13.512 93.237 13.64 92.821 13.896C92.405 14.152 92.0797 14.52 91.845 15C91.621 15.4693 91.5303 16.0293 91.573 16.68C91.5303 17.3093 91.6263 17.864 91.861 18.344C92.1063 18.8133 92.4477 19.1813 92.885 19.448C93.333 19.704 93.8183 19.832 94.341 19.832C94.917 19.832 95.4023 19.6987 95.797 19.432C96.1917 19.1653 96.5117 18.824 96.757 18.408L98.005 19.048C97.8343 19.4427 97.5677 19.8053 97.205 20.136C96.853 20.456 96.4317 20.712 95.941 20.904C95.461 21.096 94.9223 21.192 94.325 21.192ZM99.8651 21V12.376H101.321V13.96L101.161 13.736C101.364 13.2453 101.673 12.8827 102.089 12.648C102.505 12.4027 103.012 12.28 103.609 12.28H104.137V13.688H103.385C102.777 13.688 102.286 13.88 101.913 14.264C101.54 14.6373 101.353 15.1707 101.353 15.864V21H99.8651Z" fill="#90A3BF"/>
</svg>
