<svg width="132" height="28" viewBox="0 0 132 28" fill="none" xmlns="http://www.w3.org/2000/svg">
<path d="M10.0427 5.15016L10.0431 5.14985C11.1273 4.27904 12.8675 4.28414 13.968 5.16073C13.9681 5.16084 13.9682 5.16094 13.9684 5.16105L20.514 10.3976C20.5146 10.398 20.5152 10.3985 20.5157 10.3989C20.893 10.7071 21.2196 11.1894 21.4304 11.741C21.641 12.2922 21.7196 12.8699 21.6462 13.351L20.3873 20.8845C20.3872 20.885 20.3872 20.8855 20.3871 20.8859C20.1374 22.3188 18.7432 23.5 17.3 23.5H6.69996C5.23549 23.5 3.8725 22.3476 3.62294 20.8965C3.62288 20.8961 3.62282 20.8958 3.62276 20.8955L2.36313 13.3576L2.36293 13.3565C2.28079 12.8718 2.35452 12.293 2.56465 11.7419C2.77476 11.1909 3.10548 10.7091 3.4918 10.4009L3.49267 10.4002L10.0427 5.15016ZM12 21.25C12.6861 21.25 13.25 20.6862 13.25 20V17C13.25 16.3139 12.6861 15.75 12 15.75C11.3138 15.75 10.75 16.3139 10.75 17V20C10.75 20.6862 11.3138 21.25 12 21.25Z" fill="white" stroke="white"/>
<path d="M37.328 21V9.08H41.232C42.4373 9.08 43.488 9.32533 44.384 9.816C45.28 10.3067 45.9733 11 46.464 11.896C46.9547 12.7813 47.2 13.8267 47.2 15.032C47.2 16.2267 46.9547 17.272 46.464 18.168C45.9733 19.064 45.28 19.7627 44.384 20.264C43.488 20.7547 42.4373 21 41.232 21H37.328ZM38.896 19.56H41.248C42.1333 19.56 42.896 19.3733 43.536 19C44.1867 18.6267 44.688 18.104 45.04 17.432C45.392 16.7493 45.568 15.9493 45.568 15.032C45.568 14.104 45.3867 13.304 45.024 12.632C44.672 11.96 44.1707 11.4427 43.52 11.08C42.88 10.7067 42.1227 10.52 41.248 10.52H38.896V19.56ZM51.11 21.192C50.5447 21.192 50.0433 21.0907 49.606 20.888C49.1793 20.6747 48.8433 20.3867 48.598 20.024C48.3527 19.6507 48.23 19.224 48.23 18.744C48.23 18.2853 48.326 17.8747 48.518 17.512C48.7207 17.1387 49.03 16.824 49.446 16.568C49.8727 16.312 50.406 16.1307 51.046 16.024L54.246 15.496V16.744L51.382 17.224C50.8273 17.32 50.422 17.496 50.166 17.752C49.9207 18.008 49.798 18.3227 49.798 18.696C49.798 19.048 49.9367 19.3413 50.214 19.576C50.502 19.8107 50.8593 19.928 51.286 19.928C51.83 19.928 52.2993 19.816 52.694 19.592C53.0993 19.3573 53.414 19.0427 53.638 18.648C53.8727 18.2533 53.99 17.816 53.99 17.336V15.144C53.99 14.6747 53.814 14.296 53.462 14.008C53.1207 13.7093 52.6673 13.56 52.102 13.56C51.6113 13.56 51.174 13.688 50.79 13.944C50.4167 14.1893 50.1393 14.52 49.958 14.936L48.662 14.264C48.822 13.8693 49.078 13.5173 49.43 13.208C49.782 12.888 50.1927 12.6373 50.662 12.456C51.1313 12.2747 51.622 12.184 52.134 12.184C52.7953 12.184 53.3767 12.312 53.878 12.568C54.3793 12.8133 54.7687 13.16 55.046 13.608C55.334 14.0453 55.478 14.5573 55.478 15.144V21H54.022V19.368L54.294 19.464C54.1127 19.8053 53.8673 20.104 53.558 20.36C53.2487 20.616 52.886 20.8187 52.47 20.968C52.054 21.1173 51.6007 21.192 51.11 21.192ZM60.5531 21.192C59.6891 21.192 58.9371 20.9787 58.2971 20.552C57.6571 20.1253 57.2038 19.5493 56.9371 18.824L58.1211 18.248C58.3665 18.76 58.7025 19.1653 59.1291 19.464C59.5558 19.7627 60.0305 19.912 60.5531 19.912C61.0225 19.912 61.4118 19.8 61.7211 19.576C62.0305 19.352 62.1851 19.0587 62.1851 18.696C62.1851 18.44 62.1105 18.2373 61.9611 18.088C61.8225 17.928 61.6518 17.8053 61.4491 17.72C61.2465 17.624 61.0598 17.5547 60.8891 17.512L59.5931 17.144C58.8145 16.92 58.2438 16.6 57.8811 16.184C57.5291 15.768 57.3531 15.2827 57.3531 14.728C57.3531 14.216 57.4811 13.7733 57.7371 13.4C58.0038 13.016 58.3611 12.7173 58.8091 12.504C59.2678 12.2907 59.7798 12.184 60.3451 12.184C61.1025 12.184 61.7798 12.376 62.3771 12.76C62.9851 13.144 63.4171 13.6827 63.6731 14.376L62.4571 14.936C62.2651 14.488 61.9771 14.136 61.5931 13.88C61.2091 13.6133 60.7771 13.48 60.2971 13.48C59.8598 13.48 59.5131 13.592 59.2571 13.816C59.0011 14.0293 58.8731 14.3013 58.8731 14.632C58.8731 14.8773 58.9371 15.08 59.0651 15.24C59.1931 15.3893 59.3478 15.5067 59.5291 15.592C59.7105 15.6667 59.8865 15.7307 60.0571 15.784L61.4651 16.2C62.1691 16.4027 62.7131 16.7173 63.0971 17.144C63.4918 17.5707 63.6891 18.0827 63.6891 18.68C63.6891 19.16 63.5558 19.592 63.2891 19.976C63.0225 20.36 62.6545 20.6587 62.1851 20.872C61.7158 21.0853 61.1718 21.192 60.5531 21.192ZM65.317 21V8.888H66.805V14.056L66.533 13.912C66.7463 13.368 67.0877 12.9467 67.557 12.648C68.037 12.3387 68.597 12.184 69.237 12.184C69.8557 12.184 70.405 12.3227 70.885 12.6C71.3757 12.8773 71.7597 13.2613 72.037 13.752C72.325 14.2427 72.469 14.7973 72.469 15.416V21H70.965V15.896C70.965 15.416 70.8743 15.0107 70.693 14.68C70.5223 14.3493 70.2823 14.0933 69.973 13.912C69.6637 13.72 69.3063 13.624 68.901 13.624C68.5063 13.624 68.149 13.72 67.829 13.912C67.509 14.0933 67.2583 14.3547 67.077 14.696C66.8957 15.0267 66.805 15.4267 66.805 15.896V21H65.317ZM78.7423 21.192C78.0489 21.192 77.4143 21.0373 76.8383 20.728C76.2729 20.4187 75.8356 19.9813 75.5263 19.416L75.7343 19.16V21H74.2783V8.888H75.7663V14.232L75.5423 13.864C75.8623 13.352 76.2996 12.9467 76.8543 12.648C77.4089 12.3387 78.0436 12.184 78.7583 12.184C79.5689 12.184 80.2943 12.3813 80.9343 12.776C81.5849 13.1707 82.0969 13.7093 82.4703 14.392C82.8436 15.064 83.0303 15.832 83.0303 16.696C83.0303 17.5387 82.8436 18.3013 82.4703 18.984C82.0969 19.6667 81.5849 20.2053 80.9343 20.6C80.2943 20.9947 79.5636 21.192 78.7423 21.192ZM78.6303 19.752C79.1743 19.752 79.6596 19.6187 80.0863 19.352C80.5129 19.0853 80.8436 18.7227 81.0783 18.264C81.3236 17.7947 81.4463 17.272 81.4463 16.696C81.4463 16.0987 81.3236 15.576 81.0783 15.128C80.8436 14.6693 80.5129 14.3067 80.0863 14.04C79.6596 13.7627 79.1743 13.624 78.6303 13.624C78.0863 13.624 77.5956 13.7573 77.1583 14.024C76.7316 14.2907 76.3903 14.6587 76.1343 15.128C75.8889 15.5867 75.7663 16.1093 75.7663 16.696C75.7663 17.272 75.8889 17.7947 76.1343 18.264C76.3903 18.7227 76.7316 19.0853 77.1583 19.352C77.5956 19.6187 78.0863 19.752 78.6303 19.752ZM88.7574 21.192C87.9254 21.192 87.1734 21 86.5014 20.616C85.8294 20.2213 85.296 19.6827 84.9014 19C84.5067 18.3173 84.3094 17.544 84.3094 16.68C84.3094 15.816 84.5014 15.048 84.8854 14.376C85.28 13.704 85.8134 13.1707 86.4854 12.776C87.1574 12.3813 87.9147 12.184 88.7574 12.184C89.5894 12.184 90.3414 12.3813 91.0134 12.776C91.6854 13.16 92.2134 13.688 92.5974 14.36C92.992 15.032 93.1894 15.8053 93.1894 16.68C93.1894 17.5547 92.9867 18.3333 92.5814 19.016C92.176 19.688 91.6374 20.2213 90.9654 20.616C90.304 21 89.568 21.192 88.7574 21.192ZM88.7574 19.752C89.2907 19.752 89.7707 19.6187 90.1974 19.352C90.6347 19.0853 90.976 18.7173 91.2214 18.248C91.4774 17.7787 91.6054 17.256 91.6054 16.68C91.6054 16.0933 91.4774 15.576 91.2214 15.128C90.976 14.6693 90.6347 14.3067 90.1974 14.04C89.7707 13.7627 89.2907 13.624 88.7574 13.624C88.2134 13.624 87.7227 13.7627 87.2854 14.04C86.8587 14.3067 86.5174 14.6693 86.2614 15.128C86.0054 15.576 85.8774 16.0933 85.8774 16.68C85.8774 17.256 86.0054 17.7787 86.2614 18.248C86.5174 18.7173 86.8587 19.0853 87.2854 19.352C87.7227 19.6187 88.2134 19.752 88.7574 19.752ZM97.3381 21.192C96.7728 21.192 96.2715 21.0907 95.8341 20.888C95.4075 20.6747 95.0715 20.3867 94.8261 20.024C94.5808 19.6507 94.4581 19.224 94.4581 18.744C94.4581 18.2853 94.5541 17.8747 94.7461 17.512C94.9488 17.1387 95.2581 16.824 95.6741 16.568C96.1008 16.312 96.6341 16.1307 97.2741 16.024L100.474 15.496V16.744L97.6101 17.224C97.0555 17.32 96.6501 17.496 96.3941 17.752C96.1488 18.008 96.0261 18.3227 96.0261 18.696C96.0261 19.048 96.1648 19.3413 96.4421 19.576C96.7301 19.8107 97.0875 19.928 97.5141 19.928C98.0581 19.928 98.5275 19.816 98.9221 19.592C99.3275 19.3573 99.6421 19.0427 99.8661 18.648C100.101 18.2533 100.218 17.816 100.218 17.336V15.144C100.218 14.6747 100.042 14.296 99.6901 14.008C99.3488 13.7093 98.8955 13.56 98.3301 13.56C97.8395 13.56 97.4021 13.688 97.0181 13.944C96.6448 14.1893 96.3675 14.52 96.1861 14.936L94.8901 14.264C95.0501 13.8693 95.3061 13.5173 95.6581 13.208C96.0101 12.888 96.4208 12.6373 96.8901 12.456C97.3595 12.2747 97.8501 12.184 98.3621 12.184C99.0235 12.184 99.6048 12.312 100.106 12.568C100.607 12.8133 100.997 13.16 101.274 13.608C101.562 14.0453 101.706 14.5573 101.706 15.144V21H100.25V19.368L100.522 19.464C100.341 19.8053 100.095 20.104 99.7861 20.36C99.4768 20.616 99.1141 20.8187 98.6981 20.968C98.2821 21.1173 97.8288 21.192 97.3381 21.192ZM103.693 21V12.376H105.149V13.96L104.989 13.736C105.192 13.2453 105.501 12.8827 105.917 12.648C106.333 12.4027 106.84 12.28 107.437 12.28H107.965V13.688H107.213C106.605 13.688 106.115 13.88 105.741 14.264C105.368 14.6373 105.181 15.1707 105.181 15.864V21H103.693ZM112.887 21.192C112.076 21.192 111.346 20.9947 110.695 20.6C110.055 20.2053 109.548 19.6667 109.175 18.984C108.802 18.3013 108.615 17.5387 108.615 16.696C108.615 15.832 108.802 15.064 109.175 14.392C109.548 13.7093 110.055 13.1707 110.695 12.776C111.346 12.3813 112.076 12.184 112.887 12.184C113.602 12.184 114.236 12.3387 114.791 12.648C115.346 12.9467 115.783 13.352 116.103 13.864L115.863 14.232V8.888H117.367V21H115.911V19.16L116.103 19.416C115.804 19.9813 115.367 20.4187 114.791 20.728C114.226 21.0373 113.591 21.192 112.887 21.192ZM113.015 19.752C113.559 19.752 114.044 19.6187 114.471 19.352C114.898 19.0853 115.234 18.7227 115.479 18.264C115.735 17.7947 115.863 17.272 115.863 16.696C115.863 16.1093 115.735 15.5867 115.479 15.128C115.234 14.6587 114.898 14.2907 114.471 14.024C114.044 13.7573 113.559 13.624 113.015 13.624C112.482 13.624 111.996 13.7627 111.559 14.04C111.132 14.3067 110.796 14.6693 110.551 15.128C110.306 15.576 110.183 16.0987 110.183 16.696C110.183 17.272 110.306 17.7947 110.551 18.264C110.796 18.7227 111.132 19.0853 111.559 19.352C111.986 19.6187 112.471 19.752 113.015 19.752Z" fill="white"/>
</svg>
