<svg width="116" height="28" viewBox="0 0 116 28" fill="none" xmlns="http://www.w3.org/2000/svg">
<path d="M15.51 4.83008H8.49C6 4.83008 5.45 6.07008 5.13 7.59008L4 13.0001H20L18.87 7.59008C18.55 6.07008 18 4.83008 15.51 4.83008Z" stroke="#90A3BF" stroke-width="1.5" stroke-linecap="round" stroke-linejoin="round"/>
<path d="M21.99 21.82C22.1 22.99 21.16 24 19.96 24H18.08C17 24 16.85 23.54 16.66 22.97L16.46 22.37C16.18 21.55 16 21 14.56 21H9.43998C7.99998 21 7.78998 21.62 7.53998 22.37L7.33998 22.97C7.14998 23.54 6.99998 24 5.91998 24H4.03998C2.83998 24 1.89998 22.99 2.00998 21.82L2.56998 15.73C2.70998 14.23 2.99998 13 5.61998 13H18.38C21 13 21.29 14.23 21.43 15.73L21.99 21.82Z" stroke="#90A3BF" stroke-width="1.5" stroke-linecap="round" stroke-linejoin="round"/>
<path d="M4 10H3" stroke="#90A3BF" stroke-width="1.5" stroke-linecap="round" stroke-linejoin="round"/>
<path d="M21 10H20" stroke="#90A3BF" stroke-width="1.5" stroke-linecap="round" stroke-linejoin="round"/>
<path d="M12 5V7" stroke="#90A3BF" stroke-width="1.5" stroke-linecap="round" stroke-linejoin="round"/>
<path d="M10.5 7H13.5" stroke="#90A3BF" stroke-width="1.5" stroke-linecap="round" stroke-linejoin="round"/>
<path d="M6 17H9" stroke="#90A3BF" stroke-width="1.5" stroke-linecap="round" stroke-linejoin="round"/>
<path d="M15 17H18" stroke="#90A3BF" stroke-width="1.5" stroke-linecap="round" stroke-linejoin="round"/>
<path d="M42.816 21.192C41.9733 21.192 41.1947 21.0427 40.48 20.744C39.776 20.4347 39.1573 20.0027 38.624 19.448C38.1013 18.8933 37.696 18.2427 37.408 17.496C37.12 16.7493 36.976 15.9333 36.976 15.048C36.976 14.152 37.12 13.3307 37.408 12.584C37.696 11.8373 38.1013 11.1867 38.624 10.632C39.1467 10.0773 39.7653 9.65067 40.48 9.352C41.1947 9.04267 41.9733 8.888 42.816 8.888C43.6373 8.888 44.3733 9.032 45.024 9.32C45.6853 9.608 46.24 9.98133 46.688 10.44C47.1467 10.8987 47.472 11.3893 47.664 11.912L46.224 12.568C45.9467 11.9067 45.5147 11.3733 44.928 10.968C44.3413 10.552 43.6373 10.344 42.816 10.344C41.984 10.344 41.2427 10.5413 40.592 10.936C39.952 11.3307 39.4507 11.88 39.088 12.584C38.7253 13.288 38.544 14.1093 38.544 15.048C38.544 15.976 38.7253 16.792 39.088 17.496C39.4507 18.2 39.952 18.7493 40.592 19.144C41.2427 19.5387 41.984 19.736 42.816 19.736C43.6373 19.736 44.3413 19.5333 44.928 19.128C45.5147 18.712 45.9467 18.1733 46.224 17.512L47.664 18.168C47.472 18.6907 47.1467 19.1813 46.688 19.64C46.24 20.0987 45.6853 20.472 45.024 20.76C44.3733 21.048 43.6373 21.192 42.816 21.192ZM51.6725 21.192C51.1072 21.192 50.6058 21.0907 50.1685 20.888C49.7418 20.6747 49.4058 20.3867 49.1605 20.024C48.9152 19.6507 48.7925 19.224 48.7925 18.744C48.7925 18.2853 48.8885 17.8747 49.0805 17.512C49.2832 17.1387 49.5925 16.824 50.0085 16.568C50.4352 16.312 50.9685 16.1307 51.6085 16.024L54.8085 15.496V16.744L51.9445 17.224C51.3898 17.32 50.9845 17.496 50.7285 17.752C50.4832 18.008 50.3605 18.3227 50.3605 18.696C50.3605 19.048 50.4992 19.3413 50.7765 19.576C51.0645 19.8107 51.4218 19.928 51.8485 19.928C52.3925 19.928 52.8618 19.816 53.2565 19.592C53.6618 19.3573 53.9765 19.0427 54.2005 18.648C54.4352 18.2533 54.5525 17.816 54.5525 17.336V15.144C54.5525 14.6747 54.3765 14.296 54.0245 14.008C53.6832 13.7093 53.2298 13.56 52.6645 13.56C52.1738 13.56 51.7365 13.688 51.3525 13.944C50.9792 14.1893 50.7018 14.52 50.5205 14.936L49.2245 14.264C49.3845 13.8693 49.6405 13.5173 49.9925 13.208C50.3445 12.888 50.7552 12.6373 51.2245 12.456C51.6938 12.2747 52.1845 12.184 52.6965 12.184C53.3578 12.184 53.9392 12.312 54.4405 12.568C54.9418 12.8133 55.3312 13.16 55.6085 13.608C55.8965 14.0453 56.0405 14.5573 56.0405 15.144V21H54.5845V19.368L54.8565 19.464C54.6752 19.8053 54.4298 20.104 54.1205 20.36C53.8112 20.616 53.4485 20.8187 53.0325 20.968C52.6165 21.1173 52.1632 21.192 51.6725 21.192ZM58.0276 21V12.376H59.4836V13.96L59.3236 13.736C59.5263 13.2453 59.8356 12.8827 60.2516 12.648C60.6676 12.4027 61.1743 12.28 61.7716 12.28H62.2996V13.688H61.5476C60.9396 13.688 60.449 13.88 60.0756 14.264C59.7023 14.6373 59.5156 15.1707 59.5156 15.864V21H58.0276ZM65.923 21V9.08H70.131C70.9203 9.08 71.6137 9.22933 72.211 9.528C72.8083 9.82667 73.2723 10.2533 73.603 10.808C73.9443 11.3627 74.115 12.0133 74.115 12.76C74.115 13.6027 73.9017 14.3173 73.475 14.904C73.0483 15.4907 72.4723 15.912 71.747 16.168L74.515 21H72.691L69.779 15.832L70.819 16.44H67.491V21H65.923ZM67.491 15H70.179C70.6483 15 71.059 14.9093 71.411 14.728C71.763 14.5467 72.035 14.2853 72.227 13.944C72.4297 13.6027 72.531 13.208 72.531 12.76C72.531 12.3013 72.4297 11.9067 72.227 11.576C72.035 11.2347 71.763 10.9733 71.411 10.792C71.059 10.6107 70.6483 10.52 70.179 10.52H67.491V15ZM79.2856 21.192C78.4536 21.192 77.7123 20.9947 77.0616 20.6C76.411 20.2053 75.899 19.6667 75.5256 18.984C75.1523 18.2907 74.9656 17.5173 74.9656 16.664C74.9656 15.8 75.147 15.032 75.5096 14.36C75.883 13.688 76.3843 13.16 77.0136 12.776C77.6536 12.3813 78.3683 12.184 79.1576 12.184C79.7976 12.184 80.363 12.3013 80.8536 12.536C81.355 12.76 81.7763 13.0693 82.1176 13.464C82.4696 13.848 82.7363 14.2907 82.9176 14.792C83.1096 15.2827 83.2056 15.7947 83.2056 16.328C83.2056 16.4453 83.195 16.5787 83.1736 16.728C83.163 16.8667 83.147 17 83.1256 17.128H76.0536V15.848H82.2616L81.5576 16.424C81.6536 15.8693 81.6003 15.3733 81.3976 14.936C81.195 14.4987 80.8963 14.152 80.5016 13.896C80.107 13.64 79.659 13.512 79.1576 13.512C78.6563 13.512 78.1976 13.64 77.7816 13.896C77.3656 14.152 77.0403 14.52 76.8056 15C76.5816 15.4693 76.491 16.0293 76.5336 16.68C76.491 17.3093 76.587 17.864 76.8216 18.344C77.067 18.8133 77.4083 19.1813 77.8456 19.448C78.2936 19.704 78.779 19.832 79.3016 19.832C79.8776 19.832 80.363 19.6987 80.7576 19.432C81.1523 19.1653 81.4723 18.824 81.7176 18.408L82.9656 19.048C82.795 19.4427 82.5283 19.8053 82.1656 20.136C81.8136 20.456 81.3923 20.712 80.9016 20.904C80.4216 21.096 79.883 21.192 79.2856 21.192ZM84.8258 21V12.376H86.2818V14.056L86.0418 13.912C86.2551 13.368 86.5964 12.9467 87.0658 12.648C87.5458 12.3387 88.1058 12.184 88.7458 12.184C89.3644 12.184 89.9138 12.3227 90.3938 12.6C90.8844 12.8773 91.2684 13.2613 91.5458 13.752C91.8338 14.2427 91.9778 14.7973 91.9778 15.416V21H90.4738V15.896C90.4738 15.416 90.3884 15.0107 90.2178 14.68C90.0471 14.3493 89.8018 14.0933 89.4818 13.912C89.1724 13.72 88.8151 13.624 88.4098 13.624C88.0044 13.624 87.6418 13.72 87.3218 13.912C87.0124 14.0933 86.7671 14.3547 86.5858 14.696C86.4044 15.0267 86.3138 15.4267 86.3138 15.896V21H84.8258ZM97.291 21.096C96.4483 21.096 95.7977 20.856 95.339 20.376C94.891 19.896 94.667 19.2187 94.667 18.344V13.8H93.099V12.376H93.419C93.803 12.376 94.107 12.2587 94.331 12.024C94.555 11.7893 94.667 11.48 94.667 11.096V10.392H96.155V12.376H98.091V13.8H96.155V18.296C96.155 18.584 96.1977 18.8347 96.283 19.048C96.379 19.2613 96.5337 19.432 96.747 19.56C96.9603 19.6773 97.243 19.736 97.595 19.736C97.6697 19.736 97.7603 19.7307 97.867 19.72C97.9843 19.7093 98.091 19.6987 98.187 19.688V21C98.0483 21.032 97.8937 21.0533 97.723 21.064C97.5523 21.0853 97.4083 21.096 97.291 21.096Z" fill="#90A3BF"/>
</svg>
