<svg width="84" height="28" viewBox="0 0 84 28" fill="none" xmlns="http://www.w3.org/2000/svg">
<path d="M8.5 21H8C4 21 2 20 2 15V10C2 6 4 4 8 4H16C20 4 22 6 22 10V15C22 19 20 21 16 21H15.5C15.19 21 14.89 21.15 14.7 21.4L13.2 23.4C12.54 24.28 11.46 24.28 10.8 23.4L9.3 21.4C9.14 21.18 8.77 21 8.5 21Z" stroke="#90A3BF" stroke-width="1.5" stroke-miterlimit="10" stroke-linecap="round" stroke-linejoin="round"/>
<path d="M15.9965 13H16.0054" stroke="#90A3BF" stroke-width="1.5" stroke-linecap="round" stroke-linejoin="round"/>
<path d="M11.9955 13H12.0045" stroke="#90A3BF" stroke-width="1.5" stroke-linecap="round" stroke-linejoin="round"/>
<path d="M7.99451 13H8.00349" stroke="#90A3BF" stroke-width="1.5" stroke-linecap="round" stroke-linejoin="round"/>
<path d="M37.328 21V9.08H38.896V21H37.328ZM41.0508 21V12.376H42.5068V14.056L42.2668 13.912C42.4801 13.368 42.8214 12.9467 43.2908 12.648C43.7708 12.3387 44.3308 12.184 44.9708 12.184C45.5894 12.184 46.1388 12.3227 46.6188 12.6C47.1094 12.8773 47.4934 13.2613 47.7708 13.752C48.0588 14.2427 48.2028 14.7973 48.2028 15.416V21H46.6988V15.896C46.6988 15.416 46.6134 15.0107 46.4428 14.68C46.2721 14.3493 46.0268 14.0933 45.7068 13.912C45.3974 13.72 45.0401 13.624 44.6348 13.624C44.2294 13.624 43.8668 13.72 43.5468 13.912C43.2374 14.0933 42.9921 14.3547 42.8108 14.696C42.6294 15.0267 42.5388 15.4267 42.5388 15.896V21H41.0508ZM54.476 21.192C53.7827 21.192 53.148 21.0373 52.572 20.728C52.0067 20.4187 51.5693 19.9813 51.26 19.416L51.468 19.16V21H50.012V8.888H51.5V14.232L51.276 13.864C51.596 13.352 52.0333 12.9467 52.588 12.648C53.1427 12.3387 53.7773 12.184 54.492 12.184C55.3027 12.184 56.028 12.3813 56.668 12.776C57.3187 13.1707 57.8307 13.7093 58.204 14.392C58.5773 15.064 58.764 15.832 58.764 16.696C58.764 17.5387 58.5773 18.3013 58.204 18.984C57.8307 19.6667 57.3187 20.2053 56.668 20.6C56.028 20.9947 55.2973 21.192 54.476 21.192ZM54.364 19.752C54.908 19.752 55.3933 19.6187 55.82 19.352C56.2467 19.0853 56.5773 18.7227 56.812 18.264C57.0573 17.7947 57.18 17.272 57.18 16.696C57.18 16.0987 57.0573 15.576 56.812 15.128C56.5773 14.6693 56.2467 14.3067 55.82 14.04C55.3933 13.7627 54.908 13.624 54.364 13.624C53.82 13.624 53.3293 13.7573 52.892 14.024C52.4653 14.2907 52.124 14.6587 51.868 15.128C51.6227 15.5867 51.5 16.1093 51.5 16.696C51.5 17.272 51.6227 17.7947 51.868 18.264C52.124 18.7227 52.4653 19.0853 52.892 19.352C53.3293 19.6187 53.82 19.752 54.364 19.752ZM64.4911 21.192C63.6591 21.192 62.9071 21 62.2351 20.616C61.5631 20.2213 61.0298 19.6827 60.6351 19C60.2405 18.3173 60.0431 17.544 60.0431 16.68C60.0431 15.816 60.2351 15.048 60.6191 14.376C61.0138 13.704 61.5471 13.1707 62.2191 12.776C62.8911 12.3813 63.6485 12.184 64.4911 12.184C65.3231 12.184 66.0751 12.3813 66.7471 12.776C67.4191 13.16 67.9471 13.688 68.3311 14.36C68.7258 15.032 68.9231 15.8053 68.9231 16.68C68.9231 17.5547 68.7205 18.3333 68.3151 19.016C67.9098 19.688 67.3711 20.2213 66.6991 20.616C66.0378 21 65.3018 21.192 64.4911 21.192ZM64.4911 19.752C65.0245 19.752 65.5045 19.6187 65.9311 19.352C66.3685 19.0853 66.7098 18.7173 66.9551 18.248C67.2111 17.7787 67.3391 17.256 67.3391 16.68C67.3391 16.0933 67.2111 15.576 66.9551 15.128C66.7098 14.6693 66.3685 14.3067 65.9311 14.04C65.5045 13.7627 65.0245 13.624 64.4911 13.624C63.9471 13.624 63.4565 13.7627 63.0191 14.04C62.5925 14.3067 62.2511 14.6693 61.9951 15.128C61.7391 15.576 61.6111 16.0933 61.6111 16.68C61.6111 17.256 61.7391 17.7787 61.9951 18.248C62.2511 18.7173 62.5925 19.0853 63.0191 19.352C63.4565 19.6187 63.9471 19.752 64.4911 19.752ZM69.2554 21L72.2794 16.68L69.2714 12.376H71.0634L73.6394 16.12H72.7274L75.2714 12.376H77.0794L74.0714 16.68L77.0634 21H75.2714L72.7274 17.256H73.6234L71.0794 21H69.2554Z" fill="#90A3BF"/>
</svg>
