<svg width="92" height="28" viewBox="0 0 92 28" fill="none" xmlns="http://www.w3.org/2000/svg">
<path d="M3 24H21" stroke="#90A3BF" stroke-width="1.5" stroke-linecap="round" stroke-linejoin="round"/>
<path d="M5.59998 10.3799H4C3.45 10.3799 3 10.8299 3 11.3799V19.9999C3 20.5499 3.45 20.9999 4 20.9999H5.59998C6.14998 20.9999 6.59998 20.5499 6.59998 19.9999V11.3799C6.59998 10.8299 6.14998 10.3799 5.59998 10.3799Z" stroke="#90A3BF" stroke-width="1.5" stroke-linecap="round" stroke-linejoin="round"/>
<path d="M12.7999 7.19043H11.2C10.65 7.19043 10.2 7.64043 10.2 8.19043V20.0004C10.2 20.5504 10.65 21.0004 11.2 21.0004H12.7999C13.3499 21.0004 13.7999 20.5504 13.7999 20.0004V8.19043C13.7999 7.64043 13.3499 7.19043 12.7999 7.19043Z" stroke="#90A3BF" stroke-width="1.5" stroke-linecap="round" stroke-linejoin="round"/>
<path d="M19.9999 4H18.3999C17.8499 4 17.3999 4.45 17.3999 5V20C17.3999 20.55 17.8499 21 18.3999 21H19.9999C20.5499 21 20.9999 20.55 20.9999 20V5C20.9999 4.45 20.5499 4 19.9999 4Z" stroke="#90A3BF" stroke-width="1.5" stroke-linecap="round" stroke-linejoin="round"/>
<path d="M37.328 21V9.08H38.896V21H37.328ZM41.0508 21V12.376H42.5068V14.056L42.2668 13.912C42.4801 13.368 42.8214 12.9467 43.2908 12.648C43.7708 12.3387 44.3308 12.184 44.9708 12.184C45.5894 12.184 46.1388 12.3227 46.6188 12.6C47.1094 12.8773 47.4934 13.2613 47.7708 13.752C48.0588 14.2427 48.2028 14.7973 48.2028 15.416V21H46.6988V15.896C46.6988 15.416 46.6134 15.0107 46.4428 14.68C46.2721 14.3493 46.0268 14.0933 45.7068 13.912C45.3974 13.72 45.0401 13.624 44.6348 13.624C44.2294 13.624 43.8668 13.72 43.5468 13.912C43.2374 14.0933 42.9921 14.3547 42.8108 14.696C42.6294 15.0267 42.5388 15.4267 42.5388 15.896V21H41.0508ZM53.1 21.192C52.236 21.192 51.484 20.9787 50.844 20.552C50.204 20.1253 49.7507 19.5493 49.484 18.824L50.668 18.248C50.9133 18.76 51.2493 19.1653 51.676 19.464C52.1027 19.7627 52.5773 19.912 53.1 19.912C53.5693 19.912 53.9587 19.8 54.268 19.576C54.5773 19.352 54.732 19.0587 54.732 18.696C54.732 18.44 54.6573 18.2373 54.508 18.088C54.3693 17.928 54.1987 17.8053 53.996 17.72C53.7933 17.624 53.6067 17.5547 53.436 17.512L52.14 17.144C51.3613 16.92 50.7907 16.6 50.428 16.184C50.076 15.768 49.9 15.2827 49.9 14.728C49.9 14.216 50.028 13.7733 50.284 13.4C50.5507 13.016 50.908 12.7173 51.356 12.504C51.8147 12.2907 52.3267 12.184 52.892 12.184C53.6493 12.184 54.3267 12.376 54.924 12.76C55.532 13.144 55.964 13.6827 56.22 14.376L55.004 14.936C54.812 14.488 54.524 14.136 54.14 13.88C53.756 13.6133 53.324 13.48 52.844 13.48C52.4067 13.48 52.06 13.592 51.804 13.816C51.548 14.0293 51.42 14.3013 51.42 14.632C51.42 14.8773 51.484 15.08 51.612 15.24C51.74 15.3893 51.8947 15.5067 52.076 15.592C52.2573 15.6667 52.4333 15.7307 52.604 15.784L54.012 16.2C54.716 16.4027 55.26 16.7173 55.644 17.144C56.0387 17.5707 56.236 18.0827 56.236 18.68C56.236 19.16 56.1027 19.592 55.836 19.976C55.5693 20.36 55.2013 20.6587 54.732 20.872C54.2627 21.0853 53.7187 21.192 53.1 21.192ZM57.8639 21V12.376H59.3519V21H57.8639ZM57.8639 11V9.08H59.3519V11H57.8639ZM65.4527 24.52C64.8447 24.52 64.2794 24.424 63.7567 24.232C63.2447 24.04 62.8021 23.7733 62.4287 23.432C62.0661 23.1013 61.7887 22.712 61.5967 22.264L62.9887 21.624C63.1381 22.0293 63.4207 22.3707 63.8367 22.648C64.2634 22.936 64.7967 23.08 65.4367 23.08C65.9274 23.08 66.3701 22.984 66.7647 22.792C67.1701 22.6107 67.4901 22.3333 67.7247 21.96C67.9594 21.5973 68.0767 21.1547 68.0767 20.632V18.696L68.3488 18.984C68.0501 19.5707 67.6181 20.0187 67.0527 20.328C66.4981 20.6373 65.8847 20.792 65.2127 20.792C64.4021 20.792 63.6767 20.6053 63.0367 20.232C62.3967 19.848 61.8954 19.3307 61.5327 18.68C61.1701 18.0187 60.9887 17.288 60.9887 16.488C60.9887 15.6773 61.1701 14.9467 61.5327 14.296C61.8954 13.6453 62.3914 13.1333 63.0207 12.76C63.6607 12.376 64.3861 12.184 65.1967 12.184C65.8687 12.184 66.4767 12.3387 67.0207 12.648C67.5754 12.9467 68.0181 13.3627 68.3488 13.896L68.1247 14.296V12.376H69.5807V20.632C69.5807 21.3787 69.4047 22.0453 69.0527 22.632C68.7007 23.2187 68.2101 23.6773 67.5807 24.008C66.9621 24.3493 66.2527 24.52 65.4527 24.52ZM65.3407 19.352C65.8527 19.352 66.3114 19.224 66.7167 18.968C67.1327 18.712 67.4634 18.3707 67.7087 17.944C67.9541 17.5067 68.0767 17.0213 68.0767 16.488C68.0767 15.9653 67.9541 15.4853 67.7087 15.048C67.4634 14.6107 67.1327 14.264 66.7167 14.008C66.3114 13.752 65.8527 13.624 65.3407 13.624C64.8181 13.624 64.3434 13.752 63.9167 14.008C63.4901 14.264 63.1541 14.6107 62.9087 15.048C62.6741 15.4747 62.5567 15.9547 62.5567 16.488C62.5567 17.0213 62.6741 17.5067 62.9087 17.944C63.1541 18.3707 63.4847 18.712 63.9007 18.968C64.3274 19.224 64.8074 19.352 65.3407 19.352ZM71.5676 21V8.888H73.0556V14.056L72.7836 13.912C72.997 13.368 73.3383 12.9467 73.8076 12.648C74.2876 12.3387 74.8476 12.184 75.4876 12.184C76.1063 12.184 76.6556 12.3227 77.1356 12.6C77.6263 12.8773 78.0103 13.2613 78.2876 13.752C78.5756 14.2427 78.7196 14.7973 78.7196 15.416V21H77.2156V15.896C77.2156 15.416 77.125 15.0107 76.9436 14.68C76.773 14.3493 76.533 14.0933 76.2236 13.912C75.9143 13.72 75.557 13.624 75.1516 13.624C74.757 13.624 74.3996 13.72 74.0796 13.912C73.7596 14.0933 73.509 14.3547 73.3276 14.696C73.1463 15.0267 73.0556 15.4267 73.0556 15.896V21H71.5676ZM84.0329 21.096C83.1902 21.096 82.5395 20.856 82.0809 20.376C81.6329 19.896 81.4089 19.2187 81.4089 18.344V13.8H79.8409V12.376H80.1609C80.5449 12.376 80.8489 12.2587 81.0729 12.024C81.2969 11.7893 81.4089 11.48 81.4089 11.096V10.392H82.8969V12.376H84.8329V13.8H82.8969V18.296C82.8969 18.584 82.9395 18.8347 83.0249 19.048C83.1209 19.2613 83.2755 19.432 83.4889 19.56C83.7022 19.6773 83.9849 19.736 84.3369 19.736C84.4115 19.736 84.5022 19.7307 84.6089 19.72C84.7262 19.7093 84.8329 19.6987 84.9289 19.688V21C84.7902 21.032 84.6355 21.0533 84.4649 21.064C84.2942 21.0853 84.1502 21.096 84.0329 21.096Z" fill="#90A3BF"/>
</svg>
