<svg width="486" height="48" viewBox="0 0 486 48" fill="none" xmlns="http://www.w3.org/2000/svg">
<path d="M1.152 17V5.08H3.328V15.08H8.432V17H1.152ZM13.5995 17.192C12.7462 17.192 11.9675 16.9947 11.2635 16.6C10.5702 16.2053 10.0155 15.6667 9.5995 14.984C9.19417 14.3013 8.9915 13.5227 8.9915 12.648C8.9915 11.7733 9.19417 10.9947 9.5995 10.312C10.0155 9.62933 10.5702 9.09067 11.2635 8.696C11.9568 8.30133 12.7355 8.104 13.5995 8.104C14.4528 8.104 15.2262 8.30133 15.9195 8.696C16.6128 9.09067 17.1622 9.62933 17.5675 10.312C17.9835 10.984 18.1915 11.7627 18.1915 12.648C18.1915 13.5227 17.9835 14.3013 17.5675 14.984C17.1515 15.6667 16.5968 16.2053 15.9035 16.6C15.2102 16.9947 14.4422 17.192 13.5995 17.192ZM13.5995 15.272C14.0688 15.272 14.4795 15.16 14.8315 14.936C15.1942 14.712 15.4768 14.4027 15.6795 14.008C15.8928 13.6027 15.9995 13.1493 15.9995 12.648C15.9995 12.136 15.8928 11.688 15.6795 11.304C15.4768 10.9093 15.1942 10.6 14.8315 10.376C14.4795 10.1413 14.0688 10.024 13.5995 10.024C13.1195 10.024 12.6982 10.1413 12.3355 10.376C11.9728 10.6 11.6848 10.9093 11.4715 11.304C11.2688 11.688 11.1675 12.136 11.1675 12.648C11.1675 13.1493 11.2688 13.6027 11.4715 14.008C11.6848 14.4027 11.9728 14.712 12.3355 14.936C12.6982 15.16 13.1195 15.272 13.5995 15.272ZM23.653 17.192C22.789 17.192 22.0103 16.9947 21.317 16.6C20.6343 16.1947 20.0957 15.6507 19.701 14.968C19.3063 14.2747 19.109 13.496 19.109 12.632C19.109 11.768 19.3063 10.9947 19.701 10.312C20.0957 9.62933 20.6343 9.09067 21.317 8.696C22.0103 8.30133 22.789 8.104 23.653 8.104C24.2717 8.104 24.8477 8.216 25.381 8.44C25.9143 8.65333 26.373 8.952 26.757 9.336C27.1517 9.70933 27.4343 10.1573 27.605 10.68L25.765 11.48C25.605 11.0427 25.333 10.6907 24.949 10.424C24.5757 10.1573 24.1437 10.024 23.653 10.024C23.1943 10.024 22.7837 10.136 22.421 10.36C22.069 10.584 21.7917 10.8933 21.589 11.288C21.3863 11.6827 21.285 12.136 21.285 12.648C21.285 13.16 21.3863 13.6133 21.589 14.008C21.7917 14.4027 22.069 14.712 22.421 14.936C22.7837 15.16 23.1943 15.272 23.653 15.272C24.1543 15.272 24.5917 15.1387 24.965 14.872C25.3383 14.6053 25.605 14.248 25.765 13.8L27.605 14.632C27.4343 15.1227 27.157 15.5653 26.773 15.96C26.389 16.344 25.9303 16.648 25.397 16.872C24.8637 17.0853 24.2823 17.192 23.653 17.192ZM31.4841 17.192C30.8761 17.192 30.3481 17.0907 29.9001 16.888C29.4521 16.6853 29.1055 16.3973 28.8601 16.024C28.6148 15.64 28.4921 15.1973 28.4921 14.696C28.4921 14.216 28.5988 13.7893 28.8121 13.416C29.0255 13.032 29.3561 12.712 29.8041 12.456C30.2521 12.2 30.8175 12.0187 31.5001 11.912L34.3481 11.448V13.048L31.9001 13.464C31.4841 13.5387 31.1748 13.672 30.9721 13.864C30.7695 14.056 30.6681 14.3067 30.6681 14.616C30.6681 14.9147 30.7801 15.1547 31.0041 15.336C31.2388 15.5067 31.5268 15.592 31.8681 15.592C32.3055 15.592 32.6895 15.5013 33.0201 15.32C33.3615 15.128 33.6228 14.8667 33.8041 14.536C33.9961 14.2053 34.0921 13.8427 34.0921 13.448V11.208C34.0921 10.8347 33.9428 10.5253 33.6441 10.28C33.3561 10.024 32.9721 9.896 32.4921 9.896C32.0441 9.896 31.6441 10.0187 31.2921 10.264C30.9508 10.4987 30.7001 10.8133 30.5401 11.208L28.8281 10.376C28.9988 9.91733 29.2655 9.52267 29.6281 9.192C30.0015 8.85067 30.4388 8.584 30.9401 8.392C31.4415 8.2 31.9855 8.104 32.5721 8.104C33.2868 8.104 33.9161 8.23733 34.4601 8.504C35.0041 8.76 35.4255 9.12267 35.7241 9.592C36.0335 10.0507 36.1881 10.5893 36.1881 11.208V17H34.2041V15.512L34.6521 15.48C34.4281 15.8533 34.1615 16.168 33.8521 16.424C33.5428 16.6693 33.1908 16.8613 32.7961 17C32.4015 17.128 31.9641 17.192 31.4841 17.192ZM41.6171 17.096C40.6358 17.096 39.8731 16.8293 39.3291 16.296C38.7958 15.752 38.5291 14.9893 38.5291 14.008V10.168H37.0251V8.296H37.1851C37.6118 8.296 37.9425 8.184 38.1771 7.96C38.4118 7.736 38.5291 7.41067 38.5291 6.984V6.312H40.6251V8.296H42.6251V10.168H40.6251V13.896C40.6251 14.184 40.6731 14.4293 40.7691 14.632C40.8758 14.8347 41.0358 14.9893 41.2491 15.096C41.4731 15.2027 41.7558 15.256 42.0971 15.256C42.1718 15.256 42.2571 15.2507 42.3531 15.24C42.4598 15.2293 42.5611 15.2187 42.6571 15.208V17C42.5078 17.0213 42.3371 17.0427 42.1451 17.064C41.9531 17.0853 41.7771 17.096 41.6171 17.096ZM43.9385 17V8.296H46.0345V17H43.9385ZM43.9385 7.32V5.08H46.0345V7.32H43.9385ZM51.9058 17.192C51.0524 17.192 50.2738 16.9947 49.5698 16.6C48.8764 16.2053 48.3218 15.6667 47.9058 14.984C47.5004 14.3013 47.2978 13.5227 47.2978 12.648C47.2978 11.7733 47.5004 10.9947 47.9058 10.312C48.3218 9.62933 48.8764 9.09067 49.5698 8.696C50.2631 8.30133 51.0418 8.104 51.9058 8.104C52.7591 8.104 53.5324 8.30133 54.2258 8.696C54.9191 9.09067 55.4684 9.62933 55.8738 10.312C56.2898 10.984 56.4978 11.7627 56.4978 12.648C56.4978 13.5227 56.2898 14.3013 55.8738 14.984C55.4578 15.6667 54.9031 16.2053 54.2098 16.6C53.5164 16.9947 52.7484 17.192 51.9058 17.192ZM51.9058 15.272C52.3751 15.272 52.7858 15.16 53.1378 14.936C53.5004 14.712 53.7831 14.4027 53.9858 14.008C54.1991 13.6027 54.3058 13.1493 54.3058 12.648C54.3058 12.136 54.1991 11.688 53.9858 11.304C53.7831 10.9093 53.5004 10.6 53.1378 10.376C52.7858 10.1413 52.3751 10.024 51.9058 10.024C51.4258 10.024 51.0044 10.1413 50.6418 10.376C50.2791 10.6 49.9911 10.9093 49.7778 11.304C49.5751 11.688 49.4738 12.136 49.4738 12.648C49.4738 13.1493 49.5751 13.6027 49.7778 14.008C49.9911 14.4027 50.2791 14.712 50.6418 14.936C51.0044 15.16 51.4258 15.272 51.9058 15.272ZM57.7672 17V8.296H59.7352V10.008L59.5752 9.704C59.7779 9.18133 60.1086 8.78667 60.5672 8.52C61.0366 8.24267 61.5806 8.104 62.1992 8.104C62.8392 8.104 63.4046 8.24267 63.8952 8.52C64.3966 8.79733 64.7859 9.18667 65.0632 9.688C65.3406 10.1787 65.4792 10.7493 65.4792 11.4V17H63.3832V11.896C63.3832 11.512 63.3086 11.1813 63.1592 10.904C63.0099 10.6267 62.8019 10.4133 62.5352 10.264C62.2792 10.104 61.9752 10.024 61.6232 10.024C61.2819 10.024 60.9779 10.104 60.7112 10.264C60.4446 10.4133 60.2366 10.6267 60.0872 10.904C59.9379 11.1813 59.8632 11.512 59.8632 11.896V17H57.7672ZM70.2436 17.192C69.3156 17.192 68.505 16.9733 67.8116 16.536C67.129 16.088 66.6596 15.4853 66.4036 14.728L67.9716 13.976C68.1956 14.4667 68.505 14.8507 68.8996 15.128C69.305 15.4053 69.753 15.544 70.2436 15.544C70.6276 15.544 70.9316 15.4587 71.1556 15.288C71.3796 15.1173 71.4916 14.8933 71.4916 14.616C71.4916 14.4453 71.4436 14.3067 71.3476 14.2C71.2623 14.0827 71.1396 13.9867 70.9796 13.912C70.8303 13.8267 70.665 13.7573 70.4836 13.704L69.0596 13.304C68.3236 13.0907 67.7636 12.7653 67.3796 12.328C67.0063 11.8907 66.8196 11.3733 66.8196 10.776C66.8196 10.2427 66.953 9.77867 67.2196 9.384C67.497 8.97867 67.8756 8.664 68.3556 8.44C68.8463 8.216 69.4063 8.104 70.0356 8.104C70.857 8.104 71.5823 8.30133 72.2116 8.696C72.841 9.09067 73.289 9.64533 73.5556 10.36L71.9556 11.112C71.8063 10.7173 71.5556 10.4027 71.2036 10.168C70.8516 9.93333 70.457 9.816 70.0196 9.816C69.6676 9.816 69.3903 9.896 69.1876 10.056C68.985 10.216 68.8836 10.424 68.8836 10.68C68.8836 10.84 68.9263 10.9787 69.0116 11.096C69.097 11.2133 69.2143 11.3093 69.3636 11.384C69.5236 11.4587 69.705 11.528 69.9076 11.592L71.2996 12.008C72.0143 12.2213 72.5636 12.5413 72.9476 12.968C73.3423 13.3947 73.5396 13.9173 73.5396 14.536C73.5396 15.0587 73.401 15.5227 73.1236 15.928C72.8463 16.3227 72.4623 16.632 71.9716 16.856C71.481 17.08 70.905 17.192 70.2436 17.192Z" fill="#1A202C"/>
<path d="M0.996 43V34.06H2.172V39.088L1.884 38.968L6.156 34.06H7.632L4.044 38.2L4.104 37.36L7.812 43H6.408L3.576 38.752L2.172 40.36V43H0.996ZM11.4069 43.144C10.7829 43.144 10.2189 43 9.71494 42.712C9.21094 42.416 8.81094 42.012 8.51494 41.5C8.21894 40.988 8.07094 40.408 8.07094 39.76C8.07094 39.112 8.21494 38.536 8.50294 38.032C8.79894 37.528 9.19894 37.128 9.70294 36.832C10.2069 36.536 10.7749 36.388 11.4069 36.388C12.0309 36.388 12.5949 36.536 13.0989 36.832C13.6029 37.12 13.9989 37.516 14.2869 38.02C14.5829 38.524 14.7309 39.104 14.7309 39.76C14.7309 40.416 14.5789 41 14.2749 41.512C13.9709 42.016 13.5669 42.416 13.0629 42.712C12.5669 43 12.0149 43.144 11.4069 43.144ZM11.4069 42.064C11.8069 42.064 12.1669 41.964 12.4869 41.764C12.8149 41.564 13.0709 41.288 13.2549 40.936C13.4469 40.584 13.5429 40.192 13.5429 39.76C13.5429 39.32 13.4469 38.932 13.2549 38.596C13.0709 38.252 12.8149 37.98 12.4869 37.78C12.1669 37.572 11.8069 37.468 11.4069 37.468C10.9989 37.468 10.6309 37.572 10.3029 37.78C9.98294 37.98 9.72694 38.252 9.53494 38.596C9.34294 38.932 9.24694 39.32 9.24694 39.76C9.24694 40.192 9.34294 40.584 9.53494 40.936C9.72694 41.288 9.98294 41.564 10.3029 41.764C10.6309 41.964 10.9989 42.064 11.4069 42.064ZM18.4573 43.072C17.8253 43.072 17.3373 42.892 16.9933 42.532C16.6573 42.172 16.4893 41.664 16.4893 41.008V37.6H15.3133V36.532H15.5533C15.8413 36.532 16.0693 36.444 16.2373 36.268C16.4053 36.092 16.4893 35.86 16.4893 35.572V35.044H17.6053V36.532H19.0573V37.6H17.6053V40.972C17.6053 41.188 17.6373 41.376 17.7013 41.536C17.7733 41.696 17.8893 41.824 18.0493 41.92C18.2093 42.008 18.4213 42.052 18.6853 42.052C18.7413 42.052 18.8093 42.048 18.8893 42.04C18.9773 42.032 19.0573 42.024 19.1293 42.016V43C19.0253 43.024 18.9093 43.04 18.7813 43.048C18.6533 43.064 18.5453 43.072 18.4573 43.072ZM22.1611 43.144C21.7371 43.144 21.3611 43.068 21.0331 42.916C20.7131 42.756 20.4611 42.54 20.2771 42.268C20.0931 41.988 20.0011 41.668 20.0011 41.308C20.0011 40.964 20.0731 40.656 20.2171 40.384C20.3691 40.104 20.6011 39.868 20.9131 39.676C21.2331 39.484 21.6331 39.348 22.1131 39.268L24.5131 38.872V39.808L22.3651 40.168C21.9491 40.24 21.6451 40.372 21.4531 40.564C21.2691 40.756 21.1771 40.992 21.1771 41.272C21.1771 41.536 21.2811 41.756 21.4891 41.932C21.7051 42.108 21.9731 42.196 22.2931 42.196C22.7011 42.196 23.0531 42.112 23.3491 41.944C23.6531 41.768 23.8891 41.532 24.0571 41.236C24.2331 40.94 24.3211 40.612 24.3211 40.252V38.608C24.3211 38.256 24.1891 37.972 23.9251 37.756C23.6691 37.532 23.3291 37.42 22.9051 37.42C22.5371 37.42 22.2091 37.516 21.9211 37.708C21.6411 37.892 21.4331 38.14 21.2971 38.452L20.3251 37.948C20.4451 37.652 20.6371 37.388 20.9011 37.156C21.1651 36.916 21.4731 36.728 21.8251 36.592C22.1771 36.456 22.5451 36.388 22.9291 36.388C23.4251 36.388 23.8611 36.484 24.2371 36.676C24.6131 36.86 24.9051 37.12 25.1131 37.456C25.3291 37.784 25.4371 38.168 25.4371 38.608V43H24.3451V41.776L24.5491 41.848C24.4131 42.104 24.2291 42.328 23.9971 42.52C23.7651 42.712 23.4931 42.864 23.1811 42.976C22.8691 43.088 22.5291 43.144 22.1611 43.144ZM31.9657 43.144C31.3977 43.144 30.8777 43.04 30.4057 42.832C29.9337 42.616 29.5337 42.324 29.2057 41.956C28.8777 41.588 28.6417 41.176 28.4977 40.72L29.5177 40.3C29.7337 40.876 30.0537 41.32 30.4777 41.632C30.9097 41.936 31.4137 42.088 31.9897 42.088C32.3417 42.088 32.6497 42.032 32.9137 41.92C33.1777 41.808 33.3817 41.652 33.5257 41.452C33.6777 41.244 33.7537 41.004 33.7537 40.732C33.7537 40.356 33.6457 40.06 33.4297 39.844C33.2217 39.62 32.9137 39.452 32.5057 39.34L30.8617 38.836C30.2137 38.636 29.7177 38.32 29.3737 37.888C29.0297 37.456 28.8577 36.96 28.8577 36.4C28.8577 35.912 28.9737 35.484 29.2057 35.116C29.4457 34.74 29.7737 34.448 30.1897 34.24C30.6137 34.024 31.0937 33.916 31.6297 33.916C32.1657 33.916 32.6497 34.012 33.0817 34.204C33.5217 34.396 33.8937 34.656 34.1977 34.984C34.5017 35.304 34.7257 35.672 34.8697 36.088L33.8617 36.508C33.6697 36.004 33.3817 35.624 32.9977 35.368C32.6137 35.104 32.1617 34.972 31.6417 34.972C31.3217 34.972 31.0377 35.028 30.7897 35.14C30.5497 35.244 30.3617 35.4 30.2257 35.608C30.0977 35.808 30.0337 36.048 30.0337 36.328C30.0337 36.656 30.1377 36.948 30.3457 37.204C30.5537 37.46 30.8697 37.656 31.2937 37.792L32.7937 38.236C33.4977 38.452 34.0297 38.76 34.3897 39.16C34.7497 39.56 34.9297 40.056 34.9297 40.648C34.9297 41.136 34.8017 41.568 34.5457 41.944C34.2977 42.32 33.9497 42.616 33.5017 42.832C33.0617 43.04 32.5497 43.144 31.9657 43.144ZM39.2555 43.144C38.6315 43.144 38.0755 42.996 37.5875 42.7C37.0995 42.404 36.7155 42 36.4355 41.488C36.1555 40.968 36.0155 40.388 36.0155 39.748C36.0155 39.1 36.1515 38.524 36.4235 38.02C36.7035 37.516 37.0795 37.12 37.5515 36.832C38.0315 36.536 38.5675 36.388 39.1595 36.388C39.6395 36.388 40.0635 36.476 40.4315 36.652C40.8075 36.82 41.1235 37.052 41.3795 37.348C41.6435 37.636 41.8435 37.968 41.9795 38.344C42.1235 38.712 42.1955 39.096 42.1955 39.496C42.1955 39.584 42.1875 39.684 42.1715 39.796C42.1635 39.9 42.1515 40 42.1355 40.096H36.8315V39.136H41.4875L40.9595 39.568C41.0315 39.152 40.9915 38.78 40.8395 38.452C40.6875 38.124 40.4635 37.864 40.1675 37.672C39.8715 37.48 39.5355 37.384 39.1595 37.384C38.7835 37.384 38.4395 37.48 38.1275 37.672C37.8155 37.864 37.5715 38.14 37.3955 38.5C37.2275 38.852 37.1595 39.272 37.1915 39.76C37.1595 40.232 37.2315 40.648 37.4075 41.008C37.5915 41.36 37.8475 41.636 38.1755 41.836C38.5115 42.028 38.8755 42.124 39.2675 42.124C39.6995 42.124 40.0635 42.024 40.3595 41.824C40.6555 41.624 40.8955 41.368 41.0795 41.056L42.0155 41.536C41.8875 41.832 41.6875 42.104 41.4155 42.352C41.1515 42.592 40.8355 42.784 40.4675 42.928C40.1075 43.072 39.7035 43.144 39.2555 43.144ZM43.4106 43V36.532H44.5026V37.852L44.3466 37.648C44.5066 37.24 44.7626 36.928 45.1146 36.712C45.4666 36.496 45.8626 36.388 46.3026 36.388C46.8066 36.388 47.2586 36.528 47.6586 36.808C48.0666 37.088 48.3466 37.456 48.4986 37.912L48.1866 37.924C48.3546 37.42 48.6386 37.04 49.0386 36.784C49.4386 36.52 49.8826 36.388 50.3706 36.388C50.8186 36.388 51.2226 36.492 51.5826 36.7C51.9506 36.908 52.2426 37.196 52.4586 37.564C52.6746 37.932 52.7826 38.348 52.7826 38.812V43H51.6546V39.172C51.6546 38.812 51.5906 38.508 51.4626 38.26C51.3346 38.012 51.1586 37.82 50.9346 37.684C50.7186 37.54 50.4626 37.468 50.1666 37.468C49.8786 37.468 49.6186 37.54 49.3866 37.684C49.1626 37.82 48.9826 38.016 48.8466 38.272C48.7186 38.52 48.6546 38.82 48.6546 39.172V43H47.5266V39.172C47.5266 38.812 47.4626 38.508 47.3346 38.26C47.2066 38.012 47.0306 37.82 46.8066 37.684C46.5906 37.54 46.3346 37.468 46.0386 37.468C45.7506 37.468 45.4906 37.54 45.2586 37.684C45.0346 37.82 44.8546 38.016 44.7186 38.272C44.5906 38.52 44.5266 38.82 44.5266 39.172V43H43.4106ZM56.0236 43.144C55.5996 43.144 55.2236 43.068 54.8956 42.916C54.5756 42.756 54.3236 42.54 54.1396 42.268C53.9556 41.988 53.8636 41.668 53.8636 41.308C53.8636 40.964 53.9356 40.656 54.0796 40.384C54.2316 40.104 54.4636 39.868 54.7756 39.676C55.0956 39.484 55.4956 39.348 55.9756 39.268L58.3756 38.872V39.808L56.2276 40.168C55.8116 40.24 55.5076 40.372 55.3156 40.564C55.1316 40.756 55.0396 40.992 55.0396 41.272C55.0396 41.536 55.1436 41.756 55.3516 41.932C55.5676 42.108 55.8356 42.196 56.1556 42.196C56.5636 42.196 56.9156 42.112 57.2116 41.944C57.5156 41.768 57.7516 41.532 57.9196 41.236C58.0956 40.94 58.1836 40.612 58.1836 40.252V38.608C58.1836 38.256 58.0516 37.972 57.7876 37.756C57.5316 37.532 57.1916 37.42 56.7676 37.42C56.3996 37.42 56.0716 37.516 55.7836 37.708C55.5036 37.892 55.2956 38.14 55.1596 38.452L54.1876 37.948C54.3076 37.652 54.4996 37.388 54.7636 37.156C55.0276 36.916 55.3356 36.728 55.6876 36.592C56.0396 36.456 56.4076 36.388 56.7916 36.388C57.2876 36.388 57.7236 36.484 58.0996 36.676C58.4756 36.86 58.7676 37.12 58.9756 37.456C59.1916 37.784 59.2996 38.168 59.2996 38.608V43H58.2076V41.776L58.4116 41.848C58.2756 42.104 58.0916 42.328 57.8596 42.52C57.6276 42.712 57.3556 42.864 57.0436 42.976C56.7316 43.088 56.3916 43.144 56.0236 43.144ZM60.7899 43V36.532H61.8819V37.72L61.7619 37.552C61.9139 37.184 62.1459 36.912 62.4579 36.736C62.7699 36.552 63.1499 36.46 63.5979 36.46H63.9939V37.516H63.4299C62.9739 37.516 62.6059 37.66 62.3259 37.948C62.0459 38.228 61.9059 38.628 61.9059 39.148V43H60.7899ZM66.6412 43.144C66.2172 43.144 65.8412 43.068 65.5132 42.916C65.1932 42.756 64.9412 42.54 64.7572 42.268C64.5732 41.988 64.4812 41.668 64.4812 41.308C64.4812 40.964 64.5532 40.656 64.6972 40.384C64.8492 40.104 65.0812 39.868 65.3932 39.676C65.7132 39.484 66.1132 39.348 66.5932 39.268L68.9932 38.872V39.808L66.8452 40.168C66.4292 40.24 66.1252 40.372 65.9332 40.564C65.7492 40.756 65.6572 40.992 65.6572 41.272C65.6572 41.536 65.7612 41.756 65.9692 41.932C66.1852 42.108 66.4532 42.196 66.7732 42.196C67.1812 42.196 67.5332 42.112 67.8292 41.944C68.1332 41.768 68.3692 41.532 68.5372 41.236C68.7132 40.94 68.8012 40.612 68.8012 40.252V38.608C68.8012 38.256 68.6692 37.972 68.4052 37.756C68.1492 37.532 67.8092 37.42 67.3852 37.42C67.0172 37.42 66.6892 37.516 66.4012 37.708C66.1212 37.892 65.9132 38.14 65.7772 38.452L64.8052 37.948C64.9252 37.652 65.1172 37.388 65.3812 37.156C65.6452 36.916 65.9532 36.728 66.3052 36.592C66.6572 36.456 67.0252 36.388 67.4092 36.388C67.9052 36.388 68.3412 36.484 68.7172 36.676C69.0932 36.86 69.3852 37.12 69.5932 37.456C69.8092 37.784 69.9172 38.168 69.9172 38.608V43H68.8252V41.776L69.0292 41.848C68.8932 42.104 68.7092 42.328 68.4772 42.52C68.2452 42.712 67.9732 42.864 67.6612 42.976C67.3492 43.088 67.0092 43.144 66.6412 43.144ZM71.4076 43V36.532H72.4996V37.792L72.3196 37.684C72.4796 37.276 72.7356 36.96 73.0876 36.736C73.4476 36.504 73.8676 36.388 74.3476 36.388C74.8116 36.388 75.2236 36.492 75.5836 36.7C75.9516 36.908 76.2396 37.196 76.4476 37.564C76.6636 37.932 76.7716 38.348 76.7716 38.812V43H75.6436V39.172C75.6436 38.812 75.5796 38.508 75.4516 38.26C75.3236 38.012 75.1396 37.82 74.8996 37.684C74.6676 37.54 74.3996 37.468 74.0956 37.468C73.7916 37.468 73.5196 37.54 73.2796 37.684C73.0476 37.82 72.8636 38.016 72.7276 38.272C72.5916 38.52 72.5236 38.82 72.5236 39.172V43H71.4076ZM81.2125 45.64C80.7565 45.64 80.3325 45.568 79.9405 45.424C79.5565 45.28 79.2245 45.08 78.9445 44.824C78.6725 44.576 78.4645 44.284 78.3205 43.948L79.3645 43.468C79.4765 43.772 79.6885 44.028 80.0005 44.236C80.3205 44.452 80.7205 44.56 81.2005 44.56C81.5685 44.56 81.9005 44.488 82.1965 44.344C82.5005 44.208 82.7405 44 82.9165 43.72C83.0925 43.448 83.1805 43.116 83.1805 42.724V41.272L83.3845 41.488C83.1605 41.928 82.8365 42.264 82.4125 42.496C81.9965 42.728 81.5365 42.844 81.0325 42.844C80.4245 42.844 79.8805 42.704 79.4005 42.424C78.9205 42.136 78.5445 41.748 78.2725 41.26C78.0005 40.764 77.8645 40.216 77.8645 39.616C77.8645 39.008 78.0005 38.46 78.2725 37.972C78.5445 37.484 78.9165 37.1 79.3885 36.82C79.8685 36.532 80.4125 36.388 81.0205 36.388C81.5245 36.388 81.9805 36.504 82.3885 36.736C82.8045 36.96 83.1365 37.272 83.3845 37.672L83.2165 37.972V36.532H84.3085V42.724C84.3085 43.284 84.1765 43.784 83.9125 44.224C83.6485 44.664 83.2805 45.008 82.8085 45.256C82.3445 45.512 81.8125 45.64 81.2125 45.64ZM81.1285 41.764C81.5125 41.764 81.8565 41.668 82.1605 41.476C82.4725 41.284 82.7205 41.028 82.9045 40.708C83.0885 40.38 83.1805 40.016 83.1805 39.616C83.1805 39.224 83.0885 38.864 82.9045 38.536C82.7205 38.208 82.4725 37.948 82.1605 37.756C81.8565 37.564 81.5125 37.468 81.1285 37.468C80.7365 37.468 80.3805 37.564 80.0605 37.756C79.7405 37.948 79.4885 38.208 79.3045 38.536C79.1285 38.856 79.0405 39.216 79.0405 39.616C79.0405 40.016 79.1285 40.38 79.3045 40.708C79.4885 41.028 79.7365 41.284 80.0485 41.476C80.3685 41.668 80.7285 41.764 81.1285 41.764Z" fill="#90A3BF"/>
<path d="M119 40.7994C118.592 40.7994 118.183 40.6419 117.874 40.3327L114.071 36.5294C113.902 36.3602 113.902 36.0802 114.071 35.9111C114.24 35.7419 114.52 35.7419 114.689 35.9111L118.493 39.7144C118.773 39.9944 119.228 39.9944 119.508 39.7144L123.311 35.9111C123.48 35.7419 123.76 35.7419 123.929 35.9111C124.098 36.0802 124.098 36.3602 123.929 36.5294L120.126 40.3327C119.817 40.6419 119.408 40.7994 119 40.7994Z" fill="#1A202C" stroke="#1A202C" stroke-width="0.5"/>
<line x1="150.5" y1="0.5" x2="150.5" y2="47.5" stroke="#C3D4E9" stroke-opacity="0.4" stroke-linecap="round"/>
<path d="M175.152 17V5.08H179.04C180.299 5.08 181.392 5.336 182.32 5.848C183.259 6.34933 183.984 7.048 184.496 7.944C185.008 8.82933 185.264 9.85867 185.264 11.032C185.264 12.1947 185.008 13.2293 184.496 14.136C183.984 15.032 183.259 15.736 182.32 16.248C181.392 16.7493 180.299 17 179.04 17H175.152ZM177.328 15.08H179.088C179.899 15.08 180.597 14.9147 181.184 14.584C181.781 14.2427 182.245 13.7733 182.576 13.176C182.907 12.568 183.072 11.8533 183.072 11.032C183.072 10.2 182.907 9.48533 182.576 8.888C182.245 8.29067 181.781 7.82667 181.184 7.496C180.597 7.16533 179.899 7 179.088 7H177.328V15.08ZM189.109 17.192C188.501 17.192 187.973 17.0907 187.525 16.888C187.077 16.6853 186.73 16.3973 186.485 16.024C186.239 15.64 186.117 15.1973 186.117 14.696C186.117 14.216 186.223 13.7893 186.437 13.416C186.65 13.032 186.981 12.712 187.429 12.456C187.877 12.2 188.442 12.0187 189.125 11.912L191.973 11.448V13.048L189.525 13.464C189.109 13.5387 188.799 13.672 188.597 13.864C188.394 14.056 188.293 14.3067 188.293 14.616C188.293 14.9147 188.405 15.1547 188.629 15.336C188.863 15.5067 189.151 15.592 189.493 15.592C189.93 15.592 190.314 15.5013 190.645 15.32C190.986 15.128 191.247 14.8667 191.429 14.536C191.621 14.2053 191.717 13.8427 191.717 13.448V11.208C191.717 10.8347 191.567 10.5253 191.269 10.28C190.981 10.024 190.597 9.896 190.117 9.896C189.669 9.896 189.269 10.0187 188.917 10.264C188.575 10.4987 188.325 10.8133 188.165 11.208L186.453 10.376C186.623 9.91733 186.89 9.52267 187.253 9.192C187.626 8.85067 188.063 8.584 188.565 8.392C189.066 8.2 189.61 8.104 190.197 8.104C190.911 8.104 191.541 8.23733 192.085 8.504C192.629 8.76 193.05 9.12267 193.349 9.592C193.658 10.0507 193.813 10.5893 193.813 11.208V17H191.829V15.512L192.277 15.48C192.053 15.8533 191.786 16.168 191.477 16.424C191.167 16.6693 190.815 16.8613 190.421 17C190.026 17.128 189.589 17.192 189.109 17.192ZM199.242 17.096C198.26 17.096 197.498 16.8293 196.954 16.296C196.42 15.752 196.154 14.9893 196.154 14.008V10.168H194.65V8.296H194.81C195.236 8.296 195.567 8.184 195.802 7.96C196.036 7.736 196.154 7.41067 196.154 6.984V6.312H198.25V8.296H200.25V10.168H198.25V13.896C198.25 14.184 198.298 14.4293 198.394 14.632C198.5 14.8347 198.66 14.9893 198.874 15.096C199.098 15.2027 199.38 15.256 199.722 15.256C199.796 15.256 199.882 15.2507 199.978 15.24C200.084 15.2293 200.186 15.2187 200.282 15.208V17C200.132 17.0213 199.962 17.0427 199.77 17.064C199.578 17.0853 199.402 17.096 199.242 17.096ZM205.613 17.192C204.717 17.192 203.933 16.9893 203.261 16.584C202.589 16.1787 202.066 15.6293 201.693 14.936C201.319 14.2427 201.133 13.4747 201.133 12.632C201.133 11.7573 201.319 10.984 201.693 10.312C202.077 9.62933 202.594 9.09067 203.245 8.696C203.906 8.30133 204.642 8.104 205.453 8.104C206.135 8.104 206.733 8.216 207.245 8.44C207.767 8.664 208.21 8.97333 208.573 9.368C208.935 9.76267 209.213 10.216 209.405 10.728C209.597 11.2293 209.693 11.7733 209.693 12.36C209.693 12.5093 209.682 12.664 209.661 12.824C209.65 12.984 209.623 13.1227 209.581 13.24H202.861V11.64H208.397L207.405 12.392C207.501 11.9013 207.474 11.464 207.325 11.08C207.186 10.696 206.951 10.392 206.621 10.168C206.301 9.944 205.911 9.832 205.453 9.832C205.015 9.832 204.626 9.944 204.285 10.168C203.943 10.3813 203.682 10.7013 203.501 11.128C203.33 11.544 203.266 12.0507 203.309 12.648C203.266 13.1813 203.335 13.656 203.517 14.072C203.709 14.4773 203.986 14.792 204.349 15.016C204.722 15.24 205.149 15.352 205.629 15.352C206.109 15.352 206.514 15.2507 206.845 15.048C207.186 14.8453 207.453 14.5733 207.645 14.232L209.341 15.064C209.17 15.48 208.903 15.848 208.541 16.168C208.178 16.488 207.746 16.7387 207.245 16.92C206.754 17.1013 206.21 17.192 205.613 17.192Z" fill="#1A202C"/>
<path d="M174.648 43V42.184L177.12 39.508C177.608 38.988 177.996 38.56 178.284 38.224C178.58 37.888 178.796 37.588 178.932 37.324C179.068 37.06 179.136 36.78 179.136 36.484C179.136 35.996 178.992 35.62 178.704 35.356C178.416 35.092 178.036 34.96 177.564 34.96C177.084 34.96 176.676 35.1 176.34 35.38C176.004 35.652 175.772 36.04 175.644 36.544L174.576 36.268C174.68 35.788 174.872 35.372 175.152 35.02C175.432 34.668 175.78 34.396 176.196 34.204C176.612 34.012 177.068 33.916 177.564 33.916C178.108 33.916 178.584 34.024 178.992 34.24C179.408 34.448 179.732 34.74 179.964 35.116C180.204 35.492 180.324 35.928 180.324 36.424C180.324 36.752 180.256 37.072 180.12 37.384C179.984 37.696 179.784 38.028 179.52 38.38C179.256 38.724 178.912 39.124 178.488 39.58L176.28 41.98H180.516V43H174.648ZM185.3 43.144C184.588 43.144 183.964 42.952 183.428 42.568C182.9 42.176 182.488 41.636 182.192 40.948C181.896 40.252 181.748 39.444 181.748 38.524C181.748 37.604 181.896 36.8 182.192 36.112C182.488 35.416 182.9 34.876 183.428 34.492C183.956 34.108 184.576 33.916 185.288 33.916C186 33.916 186.62 34.108 187.148 34.492C187.676 34.876 188.088 35.416 188.384 36.112C188.688 36.8 188.84 37.604 188.84 38.524C188.84 39.444 188.692 40.252 188.396 40.948C188.1 41.644 187.684 42.184 187.148 42.568C186.62 42.952 186.004 43.144 185.3 43.144ZM185.3 42.052C185.78 42.052 186.196 41.908 186.548 41.62C186.9 41.324 187.172 40.912 187.364 40.384C187.564 39.856 187.664 39.236 187.664 38.524C187.664 37.812 187.564 37.192 187.364 36.664C187.172 36.136 186.896 35.728 186.536 35.44C186.184 35.152 185.768 35.008 185.288 35.008C184.808 35.008 184.392 35.152 184.04 35.44C183.688 35.728 183.412 36.136 183.212 36.664C183.02 37.192 182.924 37.812 182.924 38.524C182.924 39.228 183.02 39.844 183.212 40.372C183.412 40.9 183.688 41.312 184.04 41.608C184.4 41.904 184.82 42.052 185.3 42.052ZM191.821 43V41.86H192.313C192.737 41.86 193.073 41.736 193.321 41.488C193.569 41.232 193.693 40.888 193.693 40.456V34.06H194.881V40.432C194.881 40.952 194.773 41.404 194.557 41.788C194.349 42.172 194.053 42.472 193.669 42.688C193.285 42.896 192.833 43 192.313 43H191.821ZM198.766 43.144C198.302 43.144 197.882 43.036 197.506 42.82C197.138 42.604 196.85 42.304 196.642 41.92C196.442 41.528 196.342 41.08 196.342 40.576V36.532H197.458V40.456C197.458 40.776 197.522 41.056 197.65 41.296C197.786 41.536 197.97 41.724 198.202 41.86C198.442 41.996 198.714 42.064 199.018 42.064C199.322 42.064 199.59 41.996 199.822 41.86C200.062 41.724 200.246 41.528 200.374 41.272C200.51 41.016 200.578 40.712 200.578 40.36V36.532H201.706V43H200.614V41.74L200.794 41.848C200.642 42.256 200.382 42.576 200.014 42.808C199.654 43.032 199.238 43.144 198.766 43.144ZM203.195 43V33.916H204.311V43H203.195ZM206.151 45.64C206.007 45.64 205.863 45.628 205.719 45.604C205.575 45.588 205.439 45.552 205.311 45.496V44.5C205.399 44.508 205.507 44.524 205.635 44.548C205.771 44.572 205.903 44.584 206.031 44.584C206.407 44.584 206.691 44.5 206.883 44.332C207.083 44.164 207.271 43.88 207.447 43.48L207.855 42.508L207.831 43.48L205.071 36.532H206.283L208.431 42.052H208.071L210.207 36.532H211.443L208.527 43.768C208.391 44.112 208.215 44.428 207.999 44.716C207.791 45.004 207.535 45.228 207.231 45.388C206.927 45.556 206.567 45.64 206.151 45.64ZM213.814 43V42.184L216.286 39.508C216.774 38.988 217.162 38.56 217.45 38.224C217.746 37.888 217.962 37.588 218.098 37.324C218.234 37.06 218.302 36.78 218.302 36.484C218.302 35.996 218.158 35.62 217.87 35.356C217.582 35.092 217.202 34.96 216.73 34.96C216.25 34.96 215.842 35.1 215.506 35.38C215.17 35.652 214.938 36.04 214.81 36.544L213.742 36.268C213.846 35.788 214.038 35.372 214.318 35.02C214.598 34.668 214.946 34.396 215.362 34.204C215.778 34.012 216.234 33.916 216.73 33.916C217.274 33.916 217.75 34.024 218.158 34.24C218.574 34.448 218.898 34.74 219.13 35.116C219.37 35.492 219.49 35.928 219.49 36.424C219.49 36.752 219.422 37.072 219.286 37.384C219.15 37.696 218.95 38.028 218.686 38.38C218.422 38.724 218.078 39.124 217.654 39.58L215.446 41.98H219.682V43H213.814ZM224.466 43.144C223.754 43.144 223.13 42.952 222.594 42.568C222.066 42.176 221.654 41.636 221.358 40.948C221.062 40.252 220.914 39.444 220.914 38.524C220.914 37.604 221.062 36.8 221.358 36.112C221.654 35.416 222.066 34.876 222.594 34.492C223.122 34.108 223.742 33.916 224.454 33.916C225.166 33.916 225.786 34.108 226.314 34.492C226.842 34.876 227.254 35.416 227.55 36.112C227.854 36.8 228.006 37.604 228.006 38.524C228.006 39.444 227.858 40.252 227.562 40.948C227.266 41.644 226.85 42.184 226.314 42.568C225.786 42.952 225.17 43.144 224.466 43.144ZM224.466 42.052C224.946 42.052 225.362 41.908 225.714 41.62C226.066 41.324 226.338 40.912 226.53 40.384C226.73 39.856 226.83 39.236 226.83 38.524C226.83 37.812 226.73 37.192 226.53 36.664C226.338 36.136 226.062 35.728 225.702 35.44C225.35 35.152 224.934 35.008 224.454 35.008C223.974 35.008 223.558 35.152 223.206 35.44C222.854 35.728 222.578 36.136 222.378 36.664C222.186 37.192 222.09 37.812 222.09 38.524C222.09 39.228 222.186 39.844 222.378 40.372C222.578 40.9 222.854 41.312 223.206 41.608C223.566 41.904 223.986 42.052 224.466 42.052ZM229.201 43V42.184L231.673 39.508C232.161 38.988 232.549 38.56 232.837 38.224C233.133 37.888 233.349 37.588 233.485 37.324C233.621 37.06 233.689 36.78 233.689 36.484C233.689 35.996 233.545 35.62 233.257 35.356C232.969 35.092 232.589 34.96 232.117 34.96C231.637 34.96 231.229 35.1 230.893 35.38C230.557 35.652 230.325 36.04 230.197 36.544L229.129 36.268C229.233 35.788 229.425 35.372 229.705 35.02C229.985 34.668 230.333 34.396 230.749 34.204C231.165 34.012 231.621 33.916 232.117 33.916C232.661 33.916 233.137 34.024 233.545 34.24C233.961 34.448 234.285 34.74 234.517 35.116C234.757 35.492 234.877 35.928 234.877 36.424C234.877 36.752 234.809 37.072 234.673 37.384C234.537 37.696 234.337 38.028 234.073 38.38C233.809 38.724 233.465 39.124 233.041 39.58L230.833 41.98H235.069V43H229.201ZM236.145 43V42.184L238.617 39.508C239.105 38.988 239.493 38.56 239.781 38.224C240.077 37.888 240.293 37.588 240.429 37.324C240.565 37.06 240.633 36.78 240.633 36.484C240.633 35.996 240.489 35.62 240.201 35.356C239.913 35.092 239.533 34.96 239.061 34.96C238.581 34.96 238.173 35.1 237.837 35.38C237.501 35.652 237.269 36.04 237.141 36.544L236.073 36.268C236.177 35.788 236.369 35.372 236.649 35.02C236.929 34.668 237.277 34.396 237.693 34.204C238.109 34.012 238.565 33.916 239.061 33.916C239.605 33.916 240.081 34.024 240.489 34.24C240.905 34.448 241.229 34.74 241.461 35.116C241.701 35.492 241.821 35.928 241.821 36.424C241.821 36.752 241.753 37.072 241.617 37.384C241.481 37.696 241.281 38.028 241.017 38.38C240.753 38.724 240.409 39.124 239.985 39.58L237.777 41.98H242.013V43H236.145Z" fill="#90A3BF"/>
<path d="M301 40.7994C300.592 40.7994 300.183 40.6419 299.874 40.3327L296.071 36.5294C295.902 36.3602 295.902 36.0802 296.071 35.9111C296.24 35.7419 296.52 35.7419 296.689 35.9111L300.493 39.7144C300.773 39.9944 301.228 39.9944 301.508 39.7144L305.311 35.9111C305.48 35.7419 305.76 35.7419 305.929 35.9111C306.098 36.0802 306.098 36.3602 305.929 36.5294L302.126 40.3327C301.817 40.6419 301.408 40.7994 301 40.7994Z" fill="#1A202C" stroke="#1A202C" stroke-width="0.5"/>
<line x1="332.5" y1="0.5" x2="332.5" y2="47.5" stroke="#C3D4E9" stroke-opacity="0.4" stroke-linecap="round"/>
<path d="M359.264 17V7H356.176V5.08H364.496V7H361.456V17H359.264ZM365.328 17V8.296H367.424V17H365.328ZM365.328 7.32V5.08H367.424V7.32H365.328ZM369.039 17V8.296H371.007V10.312L370.783 9.976C370.943 9.34667 371.263 8.87733 371.743 8.568C372.223 8.25867 372.788 8.104 373.439 8.104C374.154 8.104 374.783 8.29067 375.327 8.664C375.871 9.03733 376.223 9.528 376.383 10.136L375.791 10.184C376.058 9.49067 376.458 8.97333 376.991 8.632C377.524 8.28 378.138 8.104 378.831 8.104C379.45 8.104 379.999 8.24267 380.479 8.52C380.97 8.79733 381.354 9.18667 381.631 9.688C381.908 10.1787 382.047 10.7493 382.047 11.4V17H379.951V11.896C379.951 11.512 379.882 11.1813 379.743 10.904C379.604 10.6267 379.412 10.4133 379.167 10.264C378.922 10.104 378.623 10.024 378.271 10.024C377.94 10.024 377.647 10.104 377.391 10.264C377.135 10.4133 376.938 10.6267 376.799 10.904C376.66 11.1813 376.591 11.512 376.591 11.896V17H374.495V11.896C374.495 11.512 374.426 11.1813 374.287 10.904C374.148 10.6267 373.951 10.4133 373.695 10.264C373.45 10.104 373.156 10.024 372.815 10.024C372.484 10.024 372.191 10.104 371.935 10.264C371.679 10.4133 371.482 10.6267 371.343 10.904C371.204 11.1813 371.135 11.512 371.135 11.896V17H369.039ZM387.628 17.192C386.732 17.192 385.948 16.9893 385.276 16.584C384.604 16.1787 384.082 15.6293 383.708 14.936C383.335 14.2427 383.148 13.4747 383.148 12.632C383.148 11.7573 383.335 10.984 383.708 10.312C384.092 9.62933 384.61 9.09067 385.26 8.696C385.922 8.30133 386.658 8.104 387.468 8.104C388.151 8.104 388.748 8.216 389.26 8.44C389.783 8.664 390.226 8.97333 390.588 9.368C390.951 9.76267 391.228 10.216 391.42 10.728C391.612 11.2293 391.708 11.7733 391.708 12.36C391.708 12.5093 391.698 12.664 391.676 12.824C391.666 12.984 391.639 13.1227 391.596 13.24H384.876V11.64H390.412L389.42 12.392C389.516 11.9013 389.49 11.464 389.34 11.08C389.202 10.696 388.967 10.392 388.636 10.168C388.316 9.944 387.927 9.832 387.468 9.832C387.031 9.832 386.642 9.944 386.3 10.168C385.959 10.3813 385.698 10.7013 385.516 11.128C385.346 11.544 385.282 12.0507 385.324 12.648C385.282 13.1813 385.351 13.656 385.532 14.072C385.724 14.4773 386.002 14.792 386.364 15.016C386.738 15.24 387.164 15.352 387.644 15.352C388.124 15.352 388.53 15.2507 388.86 15.048C389.202 14.8453 389.468 14.5733 389.66 14.232L391.356 15.064C391.186 15.48 390.919 15.848 390.556 16.168C390.194 16.488 389.762 16.7387 389.26 16.92C388.77 17.1013 388.226 17.192 387.628 17.192Z" fill="#1A202C"/>
<path d="M360.356 43.144C359.644 43.144 359.02 42.952 358.484 42.568C357.956 42.176 357.544 41.636 357.248 40.948C356.952 40.252 356.804 39.444 356.804 38.524C356.804 37.604 356.952 36.8 357.248 36.112C357.544 35.416 357.956 34.876 358.484 34.492C359.012 34.108 359.632 33.916 360.344 33.916C361.056 33.916 361.676 34.108 362.204 34.492C362.732 34.876 363.144 35.416 363.44 36.112C363.744 36.8 363.896 37.604 363.896 38.524C363.896 39.444 363.748 40.252 363.452 40.948C363.156 41.644 362.74 42.184 362.204 42.568C361.676 42.952 361.06 43.144 360.356 43.144ZM360.356 42.052C360.836 42.052 361.252 41.908 361.604 41.62C361.956 41.324 362.228 40.912 362.42 40.384C362.62 39.856 362.72 39.236 362.72 38.524C362.72 37.812 362.62 37.192 362.42 36.664C362.228 36.136 361.952 35.728 361.592 35.44C361.24 35.152 360.824 35.008 360.344 35.008C359.864 35.008 359.448 35.152 359.096 35.44C358.744 35.728 358.468 36.136 358.268 36.664C358.076 37.192 357.98 37.812 357.98 38.524C357.98 39.228 358.076 39.844 358.268 40.372C358.468 40.9 358.744 41.312 359.096 41.608C359.456 41.904 359.876 42.052 360.356 42.052ZM365.368 43L369.292 35.08H364.912V34.06H370.528V35.08L366.64 43H365.368ZM371.535 43V41.56H372.699V43H371.535ZM378.14 43.144C377.428 43.144 376.804 42.952 376.268 42.568C375.74 42.176 375.328 41.636 375.032 40.948C374.736 40.252 374.588 39.444 374.588 38.524C374.588 37.604 374.736 36.8 375.032 36.112C375.328 35.416 375.74 34.876 376.268 34.492C376.796 34.108 377.416 33.916 378.128 33.916C378.84 33.916 379.46 34.108 379.988 34.492C380.516 34.876 380.928 35.416 381.224 36.112C381.528 36.8 381.68 37.604 381.68 38.524C381.68 39.444 381.532 40.252 381.236 40.948C380.94 41.644 380.524 42.184 379.988 42.568C379.46 42.952 378.844 43.144 378.14 43.144ZM378.14 42.052C378.62 42.052 379.036 41.908 379.388 41.62C379.74 41.324 380.012 40.912 380.204 40.384C380.404 39.856 380.504 39.236 380.504 38.524C380.504 37.812 380.404 37.192 380.204 36.664C380.012 36.136 379.736 35.728 379.376 35.44C379.024 35.152 378.608 35.008 378.128 35.008C377.648 35.008 377.232 35.152 376.88 35.44C376.528 35.728 376.252 36.136 376.052 36.664C375.86 37.192 375.764 37.812 375.764 38.524C375.764 39.228 375.86 39.844 376.052 40.372C376.252 40.9 376.528 41.312 376.88 41.608C377.24 41.904 377.66 42.052 378.14 42.052ZM386.584 43.144C385.872 43.144 385.248 42.952 384.712 42.568C384.184 42.176 383.772 41.636 383.476 40.948C383.18 40.252 383.032 39.444 383.032 38.524C383.032 37.604 383.18 36.8 383.476 36.112C383.772 35.416 384.184 34.876 384.712 34.492C385.24 34.108 385.86 33.916 386.572 33.916C387.284 33.916 387.904 34.108 388.432 34.492C388.96 34.876 389.372 35.416 389.668 36.112C389.972 36.8 390.124 37.604 390.124 38.524C390.124 39.444 389.976 40.252 389.68 40.948C389.384 41.644 388.968 42.184 388.432 42.568C387.904 42.952 387.288 43.144 386.584 43.144ZM386.584 42.052C387.064 42.052 387.48 41.908 387.832 41.62C388.184 41.324 388.456 40.912 388.648 40.384C388.848 39.856 388.948 39.236 388.948 38.524C388.948 37.812 388.848 37.192 388.648 36.664C388.456 36.136 388.18 35.728 387.82 35.44C387.468 35.152 387.052 35.008 386.572 35.008C386.092 35.008 385.676 35.152 385.324 35.44C384.972 35.728 384.696 36.136 384.496 36.664C384.304 37.192 384.208 37.812 384.208 38.524C384.208 39.228 384.304 39.844 384.496 40.372C384.696 40.9 384.972 41.312 385.324 41.608C385.684 41.904 386.104 42.052 386.584 42.052Z" fill="#90A3BF"/>
<path d="M479 40.7994C478.592 40.7994 478.183 40.6419 477.874 40.3327L474.071 36.5294C473.902 36.3602 473.902 36.0802 474.071 35.9111C474.24 35.7419 474.52 35.7419 474.689 35.9111L478.493 39.7144C478.773 39.9944 479.228 39.9944 479.508 39.7144L483.311 35.9111C483.48 35.7419 483.76 35.7419 483.929 35.9111C484.098 36.0802 484.098 36.3602 483.929 36.5294L480.126 40.3327C479.817 40.6419 479.408 40.7994 479 40.7994Z" fill="#1A202C" stroke="#1A202C" stroke-width="0.5"/>
</svg>
