<svg width="220" height="24" viewBox="0 0 220 24" fill="none" xmlns="http://www.w3.org/2000/svg">
<g clip-path="url(#clip0_35_8273)">
<path fill-rule="evenodd" clip-rule="evenodd" d="M9.1667 4.65862C9.22427 4.47609 9.33852 4.31666 9.49287 4.20349C9.64723 4.09031 9.83364 4.0293 10.025 4.0293C10.2164 4.0293 10.4028 4.09031 10.5572 4.20349C10.7116 4.31666 10.8258 4.47609 10.8834 4.65862L12.4334 9.42529H17.4334C17.6316 9.41779 17.8269 9.47541 17.9893 9.58932C18.1517 9.70324 18.2723 9.86719 18.3328 10.0561C18.3933 10.2451 18.3902 10.4486 18.3241 10.6357C18.258 10.8227 18.1325 10.983 17.9667 11.092L13.9084 14.0336L15.4584 18.8086C15.5197 18.9905 15.5212 19.1872 15.4628 19.3701C15.4043 19.5529 15.289 19.7122 15.1336 19.8249C14.9781 19.9375 14.7908 19.9975 14.5988 19.996C14.4069 19.9946 14.2204 19.9319 14.0667 19.817L10 16.842L5.9417 19.792C5.78796 19.9069 5.60151 19.9696 5.40957 19.971C5.21764 19.9725 5.03028 19.9125 4.87485 19.7999C4.71942 19.6872 4.60406 19.5279 4.54563 19.3451C4.48719 19.1622 4.48874 18.9655 4.55004 18.7836L6.10004 14.0086L2.0417 11.067C1.87594 10.958 1.75041 10.7977 1.6843 10.6107C1.61819 10.4236 1.61514 10.2201 1.6756 10.0311C1.73606 9.84219 1.85672 9.67824 2.01914 9.56432C2.18155 9.45041 2.3768 9.39279 2.57504 9.40029H7.57504L9.1667 4.65862Z" fill="#FBAD39"/>
<path fill-rule="evenodd" clip-rule="evenodd" d="M31.1667 4.65862C31.2243 4.47609 31.3385 4.31666 31.4929 4.20349C31.6472 4.09031 31.8336 4.0293 32.025 4.0293C32.2164 4.0293 32.4028 4.09031 32.5572 4.20349C32.7116 4.31666 32.8258 4.47609 32.8834 4.65862L34.4334 9.42529H39.4334C39.6316 9.41779 39.8269 9.47541 39.9893 9.58932C40.1517 9.70324 40.2723 9.86719 40.3328 10.0561C40.3933 10.2451 40.3902 10.4486 40.3241 10.6357C40.258 10.8227 40.1325 10.983 39.9667 11.092L35.9084 14.0336L37.4584 18.8086C37.5197 18.9905 37.5212 19.1872 37.4628 19.3701C37.4043 19.5529 37.289 19.7122 37.1336 19.8249C36.9781 19.9375 36.7908 19.9975 36.5988 19.996C36.4069 19.9946 36.2204 19.9319 36.0667 19.817L32 16.842L27.9417 19.792C27.788 19.9069 27.6015 19.9696 27.4096 19.971C27.2176 19.9725 27.0303 19.9125 26.8748 19.7999C26.7194 19.6872 26.6041 19.5279 26.5456 19.3451C26.4872 19.1622 26.4887 18.9655 26.55 18.7836L28.1 14.0086L24.0417 11.067C23.8759 10.958 23.7504 10.7977 23.6843 10.6107C23.6182 10.4236 23.6151 10.2201 23.6756 10.0311C23.7361 9.84219 23.8567 9.67824 24.0191 9.56432C24.1816 9.45041 24.3768 9.39279 24.575 9.40029H29.575L31.1667 4.65862Z" fill="#FBAD39"/>
<path fill-rule="evenodd" clip-rule="evenodd" d="M53.1667 4.65862C53.2243 4.47609 53.3385 4.31666 53.4929 4.20349C53.6472 4.09031 53.8336 4.0293 54.025 4.0293C54.2164 4.0293 54.4028 4.09031 54.5572 4.20349C54.7116 4.31666 54.8258 4.47609 54.8834 4.65862L56.4334 9.42529H61.4334C61.6316 9.41779 61.8269 9.47541 61.9893 9.58932C62.1517 9.70324 62.2723 9.86719 62.3328 10.0561C62.3933 10.2451 62.3902 10.4486 62.3241 10.6357C62.258 10.8227 62.1325 10.983 61.9667 11.092L57.9084 14.0336L59.4584 18.8086C59.5197 18.9905 59.5212 19.1872 59.4628 19.3701C59.4043 19.5529 59.289 19.7122 59.1336 19.8249C58.9781 19.9375 58.7908 19.9975 58.5988 19.996C58.4069 19.9946 58.2204 19.9319 58.0667 19.817L54 16.842L49.9417 19.792C49.788 19.9069 49.6015 19.9696 49.4096 19.971C49.2176 19.9725 49.0303 19.9125 48.8748 19.7999C48.7194 19.6872 48.6041 19.5279 48.5456 19.3451C48.4872 19.1622 48.4887 18.9655 48.55 18.7836L50.1 14.0086L46.0417 11.067C45.8759 10.958 45.7504 10.7977 45.6843 10.6107C45.6182 10.4236 45.6151 10.2201 45.6756 10.0311C45.7361 9.84219 45.8567 9.67824 46.0191 9.56432C46.1816 9.45041 46.3768 9.39279 46.575 9.40029H51.575L53.1667 4.65862Z" fill="#FBAD39"/>
<path fill-rule="evenodd" clip-rule="evenodd" d="M75.1667 4.65862C75.2243 4.47609 75.3385 4.31666 75.4929 4.20349C75.6472 4.09031 75.8336 4.0293 76.025 4.0293C76.2164 4.0293 76.4028 4.09031 76.5572 4.20349C76.7116 4.31666 76.8258 4.47609 76.8834 4.65862L78.4334 9.42529H83.4334C83.6316 9.41779 83.8269 9.47541 83.9893 9.58932C84.1517 9.70324 84.2723 9.86719 84.3328 10.0561C84.3933 10.2451 84.3902 10.4486 84.3241 10.6357C84.258 10.8227 84.1325 10.983 83.9667 11.092L79.9084 14.0336L81.4584 18.8086C81.5197 18.9905 81.5212 19.1872 81.4628 19.3701C81.4043 19.5529 81.289 19.7122 81.1336 19.8249C80.9781 19.9375 80.7908 19.9975 80.5988 19.996C80.4069 19.9946 80.2204 19.9319 80.0667 19.817L76 16.842L71.9417 19.792C71.788 19.9069 71.6015 19.9696 71.4096 19.971C71.2176 19.9725 71.0303 19.9125 70.8748 19.7999C70.7194 19.6872 70.6041 19.5279 70.5456 19.3451C70.4872 19.1622 70.4887 18.9655 70.55 18.7836L72.1 14.0086L68.0417 11.067C67.8759 10.958 67.7504 10.7977 67.6843 10.6107C67.6182 10.4236 67.6151 10.2201 67.6756 10.0311C67.7361 9.84219 67.8567 9.67824 68.0191 9.56432C68.1816 9.45041 68.3768 9.39279 68.575 9.40029H73.575L75.1667 4.65862Z" fill="#FBAD39"/>
<path fill-rule="evenodd" clip-rule="evenodd" d="M97.1667 4.65862C97.2243 4.47609 97.3385 4.31666 97.4929 4.20349C97.6472 4.09031 97.8336 4.0293 98.025 4.0293C98.2164 4.0293 98.4028 4.09031 98.5572 4.20349C98.7116 4.31666 98.8258 4.47609 98.8834 4.65862L100.433 9.42529H105.433C105.632 9.41779 105.827 9.47541 105.989 9.58932C106.152 9.70324 106.272 9.86719 106.333 10.0561C106.393 10.2451 106.39 10.4486 106.324 10.6357C106.258 10.8227 106.132 10.983 105.967 11.092L101.908 14.0336L103.458 18.8086C103.52 18.9905 103.521 19.1872 103.463 19.3701C103.404 19.5529 103.289 19.7122 103.134 19.8249C102.978 19.9375 102.791 19.9975 102.599 19.996C102.407 19.9946 102.22 19.9319 102.067 19.817L98 16.842L93.9417 19.792C93.788 19.9069 93.6015 19.9696 93.4096 19.971C93.2176 19.9725 93.0303 19.9125 92.8748 19.7999C92.7194 19.6872 92.6041 19.5279 92.5456 19.3451C92.4872 19.1622 92.4887 18.9655 92.55 18.7836L94.1 14.0086L90.0417 11.067C89.8759 10.958 89.7504 10.7977 89.6843 10.6107C89.6182 10.4236 89.6151 10.2201 89.6756 10.0311C89.7361 9.84219 89.8567 9.67824 90.0191 9.56432C90.1816 9.45041 90.3768 9.39279 90.575 9.40029H95.575L97.1667 4.65862Z" stroke="#90A3BF" stroke-width="1.5" stroke-linecap="round" stroke-linejoin="round"/>
</g>
<path d="M121.726 18V15.592H116.602V14.458L121.698 7.57H123.014V14.458H124.372V15.592H123.014V18H121.726ZM117.638 14.948L117.442 14.458H121.726V8.718L122.132 8.83L117.638 14.948ZM130.374 18V15.592H125.25V14.458L130.346 7.57H131.662V14.458H133.02V15.592H131.662V18H130.374ZM126.286 14.948L126.09 14.458H130.374V8.718L130.78 8.83L126.286 14.948ZM138.377 18.168C137.547 18.168 136.819 17.944 136.193 17.496C135.577 17.0387 135.097 16.4087 134.751 15.606C134.406 14.794 134.233 13.8513 134.233 12.778C134.233 11.7047 134.406 10.7667 134.751 9.964C135.097 9.152 135.577 8.522 136.193 8.074C136.809 7.626 137.533 7.402 138.363 7.402C139.194 7.402 139.917 7.626 140.533 8.074C141.149 8.522 141.63 9.152 141.975 9.964C142.33 10.7667 142.507 11.7047 142.507 12.778C142.507 13.8513 142.335 14.794 141.989 15.606C141.644 16.418 141.159 17.048 140.533 17.496C139.917 17.944 139.199 18.168 138.377 18.168ZM138.377 16.894C138.937 16.894 139.423 16.726 139.833 16.39C140.244 16.0447 140.561 15.564 140.785 14.948C141.019 14.332 141.135 13.6087 141.135 12.778C141.135 11.9473 141.019 11.224 140.785 10.608C140.561 9.992 140.239 9.516 139.819 9.18C139.409 8.844 138.923 8.676 138.363 8.676C137.803 8.676 137.318 8.844 136.907 9.18C136.497 9.516 136.175 9.992 135.941 10.608C135.717 11.224 135.605 11.9473 135.605 12.778C135.605 13.5993 135.717 14.318 135.941 14.934C136.175 15.55 136.497 16.0307 136.907 16.376C137.327 16.7213 137.817 16.894 138.377 16.894ZM146.912 18V15.102H144.014V13.884H146.912V11H148.13V13.884H151.014V15.102H148.13V18H146.912ZM154.905 18V7.57H158.587C159.277 7.57 159.884 7.70067 160.407 7.962C160.929 8.22333 161.335 8.59667 161.625 9.082C161.923 9.56733 162.073 10.1367 162.073 10.79C162.073 11.5273 161.886 12.1527 161.513 12.666C161.139 13.1793 160.635 13.548 160.001 13.772L162.423 18H160.827L158.279 13.478L159.189 14.01H156.277V18H154.905ZM156.277 12.75H158.629C159.039 12.75 159.399 12.6707 159.707 12.512C160.015 12.3533 160.253 12.1247 160.421 11.826C160.598 11.5273 160.687 11.182 160.687 10.79C160.687 10.3887 160.598 10.0433 160.421 9.754C160.253 9.45533 160.015 9.22667 159.707 9.068C159.399 8.90933 159.039 8.83 158.629 8.83H156.277V12.75ZM166.597 18.168C165.869 18.168 165.22 17.9953 164.651 17.65C164.082 17.3047 163.634 16.8333 163.307 16.236C162.98 15.6293 162.817 14.9527 162.817 14.206C162.817 13.45 162.976 12.778 163.293 12.19C163.62 11.602 164.058 11.14 164.609 10.804C165.169 10.4587 165.794 10.286 166.485 10.286C167.045 10.286 167.54 10.3887 167.969 10.594C168.408 10.79 168.776 11.0607 169.075 11.406C169.383 11.742 169.616 12.1293 169.775 12.568C169.943 12.9973 170.027 13.4453 170.027 13.912C170.027 14.0147 170.018 14.1313 169.999 14.262C169.99 14.3833 169.976 14.5 169.957 14.612H163.769V13.492H169.201L168.585 13.996C168.669 13.5107 168.622 13.0767 168.445 12.694C168.268 12.3113 168.006 12.008 167.661 11.784C167.316 11.56 166.924 11.448 166.485 11.448C166.046 11.448 165.645 11.56 165.281 11.784C164.917 12.008 164.632 12.33 164.427 12.75C164.231 13.1607 164.152 13.6507 164.189 14.22C164.152 14.7707 164.236 15.256 164.441 15.676C164.656 16.0867 164.954 16.4087 165.337 16.642C165.729 16.866 166.154 16.978 166.611 16.978C167.115 16.978 167.54 16.8613 167.885 16.628C168.23 16.3947 168.51 16.096 168.725 15.732L169.817 16.292C169.668 16.6373 169.434 16.9547 169.117 17.244C168.809 17.524 168.44 17.748 168.011 17.916C167.591 18.084 167.12 18.168 166.597 18.168ZM173.408 18L170.454 10.454H171.91L174.276 16.838H173.772L176.152 10.454H177.608L174.64 18H173.408ZM178.493 18V10.454H179.795V18H178.493ZM178.493 9.25V7.57H179.795V9.25H178.493ZM185.007 18.168C184.279 18.168 183.63 17.9953 183.061 17.65C182.492 17.3047 182.044 16.8333 181.717 16.236C181.39 15.6293 181.227 14.9527 181.227 14.206C181.227 13.45 181.386 12.778 181.703 12.19C182.03 11.602 182.468 11.14 183.019 10.804C183.579 10.4587 184.204 10.286 184.895 10.286C185.455 10.286 185.95 10.3887 186.379 10.594C186.818 10.79 187.186 11.0607 187.485 11.406C187.793 11.742 188.026 12.1293 188.185 12.568C188.353 12.9973 188.437 13.4453 188.437 13.912C188.437 14.0147 188.428 14.1313 188.409 14.262C188.4 14.3833 188.386 14.5 188.367 14.612H182.179V13.492H187.611L186.995 13.996C187.079 13.5107 187.032 13.0767 186.855 12.694C186.678 12.3113 186.416 12.008 186.071 11.784C185.726 11.56 185.334 11.448 184.895 11.448C184.456 11.448 184.055 11.56 183.691 11.784C183.327 12.008 183.042 12.33 182.837 12.75C182.641 13.1607 182.562 13.6507 182.599 14.22C182.562 14.7707 182.646 15.256 182.851 15.676C183.066 16.0867 183.364 16.4087 183.747 16.642C184.139 16.866 184.564 16.978 185.021 16.978C185.525 16.978 185.95 16.8613 186.295 16.628C186.64 16.3947 186.92 16.096 187.135 15.732L188.227 16.292C188.078 16.6373 187.844 16.9547 187.527 17.244C187.219 17.524 186.85 17.748 186.421 17.916C186.001 18.084 185.53 18.168 185.007 18.168ZM191.59 18L189 10.454H190.442L192.5 16.768L191.996 16.754L194.012 10.454H195.244L197.26 16.754L196.756 16.768L198.828 10.454H200.256L197.666 18H196.42L194.432 11.7H194.824L192.836 18H191.59ZM204.476 18.168C203.748 18.168 203.1 17.9953 202.53 17.65C201.961 17.3047 201.513 16.8333 201.186 16.236C200.86 15.6293 200.696 14.9527 200.696 14.206C200.696 13.45 200.855 12.778 201.172 12.19C201.499 11.602 201.938 11.14 202.488 10.804C203.048 10.4587 203.674 10.286 204.364 10.286C204.924 10.286 205.419 10.3887 205.848 10.594C206.287 10.79 206.656 11.0607 206.954 11.406C207.262 11.742 207.496 12.1293 207.654 12.568C207.822 12.9973 207.906 13.4453 207.906 13.912C207.906 14.0147 207.897 14.1313 207.878 14.262C207.869 14.3833 207.855 14.5 207.836 14.612H201.648V13.492H207.08L206.464 13.996C206.548 13.5107 206.502 13.0767 206.324 12.694C206.147 12.3113 205.886 12.008 205.54 11.784C205.195 11.56 204.803 11.448 204.364 11.448C203.926 11.448 203.524 11.56 203.16 11.784C202.796 12.008 202.512 12.33 202.306 12.75C202.11 13.1607 202.031 13.6507 202.068 14.22C202.031 14.7707 202.115 15.256 202.32 15.676C202.535 16.0867 202.834 16.4087 203.216 16.642C203.608 16.866 204.033 16.978 204.49 16.978C204.994 16.978 205.419 16.8613 205.764 16.628C206.11 16.3947 206.39 16.096 206.604 15.732L207.696 16.292C207.547 16.6373 207.314 16.9547 206.996 17.244C206.688 17.524 206.32 17.748 205.89 17.916C205.47 18.084 204.999 18.168 204.476 18.168ZM209.324 18V10.454H210.598V11.84L210.458 11.644C210.635 11.2147 210.906 10.8973 211.27 10.692C211.634 10.4773 212.077 10.37 212.6 10.37H213.062V11.602H212.404C211.872 11.602 211.442 11.77 211.116 12.106C210.789 12.4327 210.626 12.8993 210.626 13.506V18H209.324Z" fill="#596780"/>
<defs>
<clipPath id="clip0_35_8273">
<rect width="108" height="20" fill="white" transform="translate(0 2)"/>
</clipPath>
</defs>
</svg>
